G04*
G04 #@! TF.GenerationSoftware,Altium Limited,Altium Designer,19.1.5 (86)*
G04*
G04 Layer_Color=8421504*
%FSAX24Y24*%
%MOIN*%
G70*
G01*
G75*
%ADD15R,0.0709X0.0295*%
%ADD16R,0.0709X0.0236*%
%ADD17R,0.0354X0.0512*%
%ADD18R,0.0354X0.0394*%
%ADD19O,0.0591X0.0236*%
%ADD20R,0.0906X0.2205*%
%ADD21O,0.0650X0.0157*%
%ADD22R,0.0335X0.0374*%
%ADD23R,0.0394X0.0354*%
%ADD24R,0.0630X0.1378*%
%ADD25R,0.2205X0.0827*%
%ADD26O,0.0571X0.0118*%
%ADD27O,0.0118X0.0571*%
%ADD28R,0.0846X0.0374*%
%ADD29R,0.0846X0.1280*%
%ADD30R,0.0374X0.0335*%
%ADD31R,0.0315X0.0354*%
D15*
X011378Y022218D02*
D03*
Y021254D02*
D03*
D16*
Y021736D02*
D03*
D17*
X010610Y022465D02*
D03*
Y021008D02*
D03*
D18*
X014167Y014173D02*
D03*
X013636D02*
D03*
X025433Y013694D02*
D03*
X025965D02*
D03*
X030581Y016004D02*
D03*
X030049D02*
D03*
X030581Y016535D02*
D03*
X030049D02*
D03*
X024990Y019449D02*
D03*
X024459D02*
D03*
X016122Y019550D02*
D03*
X015591D02*
D03*
X024931Y014832D02*
D03*
X024400D02*
D03*
X016566Y015450D02*
D03*
X016034D02*
D03*
X018500Y021092D02*
D03*
X017969D02*
D03*
X015591Y017600D02*
D03*
X016122D02*
D03*
D19*
X026181Y011396D02*
D03*
Y011896D02*
D03*
Y012396D02*
D03*
Y012896D02*
D03*
X024055Y011396D02*
D03*
Y011896D02*
D03*
Y012396D02*
D03*
Y012896D02*
D03*
D20*
X012943Y012450D02*
D03*
X015857D02*
D03*
D21*
X025699Y019085D02*
D03*
Y018829D02*
D03*
Y018573D02*
D03*
Y018317D02*
D03*
Y018061D02*
D03*
Y017805D02*
D03*
Y017549D02*
D03*
Y017293D02*
D03*
Y017037D02*
D03*
Y016781D02*
D03*
Y016526D02*
D03*
Y016270D02*
D03*
X028553Y019085D02*
D03*
Y018829D02*
D03*
Y018573D02*
D03*
Y018317D02*
D03*
Y018061D02*
D03*
Y017805D02*
D03*
Y017549D02*
D03*
Y017293D02*
D03*
Y017037D02*
D03*
Y016781D02*
D03*
Y016526D02*
D03*
Y016270D02*
D03*
D22*
X017953Y021736D02*
D03*
X018465D02*
D03*
X029438Y012657D02*
D03*
X028926D02*
D03*
X029438Y013248D02*
D03*
X028926D02*
D03*
X028294Y020327D02*
D03*
X028806D02*
D03*
X030669Y012657D02*
D03*
X031181D02*
D03*
X028294Y021327D02*
D03*
X028806D02*
D03*
X030669Y013248D02*
D03*
X031181D02*
D03*
X023268Y019944D02*
D03*
X022756D02*
D03*
X015601Y018169D02*
D03*
X016113D02*
D03*
X015601Y018950D02*
D03*
X016113D02*
D03*
X018209Y012106D02*
D03*
X017697D02*
D03*
D23*
X031181Y016535D02*
D03*
Y016004D02*
D03*
X016550Y014134D02*
D03*
Y014666D02*
D03*
X016568Y016565D02*
D03*
Y016033D02*
D03*
X021565Y020482D02*
D03*
Y019951D02*
D03*
X020965Y020482D02*
D03*
Y019951D02*
D03*
X017431Y012852D02*
D03*
Y013384D02*
D03*
X020374Y020491D02*
D03*
Y019960D02*
D03*
X018799Y020487D02*
D03*
Y019956D02*
D03*
X019783Y020482D02*
D03*
Y019950D02*
D03*
X029429Y016004D02*
D03*
Y016535D02*
D03*
Y018967D02*
D03*
Y019499D02*
D03*
X024272Y015541D02*
D03*
Y016073D02*
D03*
X024921Y015541D02*
D03*
Y016073D02*
D03*
X016550Y023084D02*
D03*
Y023616D02*
D03*
X017250Y023084D02*
D03*
Y023616D02*
D03*
X016550Y022316D02*
D03*
Y021784D02*
D03*
D24*
X026358Y014882D02*
D03*
X027894D02*
D03*
D25*
X023819Y022269D02*
D03*
X020079D02*
D03*
D26*
X017431Y018012D02*
D03*
Y017815D02*
D03*
Y017618D02*
D03*
Y017421D02*
D03*
Y017224D02*
D03*
Y017028D02*
D03*
Y016831D02*
D03*
Y016634D02*
D03*
Y016437D02*
D03*
Y016240D02*
D03*
Y016043D02*
D03*
Y015846D02*
D03*
Y015650D02*
D03*
Y015453D02*
D03*
Y015256D02*
D03*
Y015059D02*
D03*
Y014862D02*
D03*
Y014665D02*
D03*
Y014468D02*
D03*
Y014272D02*
D03*
X022726D02*
D03*
Y014468D02*
D03*
Y014665D02*
D03*
Y014862D02*
D03*
Y015059D02*
D03*
Y015256D02*
D03*
Y015453D02*
D03*
Y015650D02*
D03*
Y015846D02*
D03*
Y016043D02*
D03*
Y016240D02*
D03*
Y016437D02*
D03*
Y016634D02*
D03*
Y016831D02*
D03*
Y017028D02*
D03*
Y017224D02*
D03*
Y017421D02*
D03*
Y017618D02*
D03*
Y017815D02*
D03*
Y018012D02*
D03*
D27*
X018209Y013494D02*
D03*
X018406D02*
D03*
X018602D02*
D03*
X018799D02*
D03*
X018996D02*
D03*
X019193D02*
D03*
X019390D02*
D03*
X019587D02*
D03*
X019783D02*
D03*
X019980D02*
D03*
X020177D02*
D03*
X020374D02*
D03*
X020571D02*
D03*
X020768D02*
D03*
X020965D02*
D03*
X021161D02*
D03*
X021358D02*
D03*
X021555D02*
D03*
X021752D02*
D03*
X021949D02*
D03*
Y018789D02*
D03*
X021752D02*
D03*
X021555D02*
D03*
X021358D02*
D03*
X021161D02*
D03*
X020965D02*
D03*
X020768D02*
D03*
X020571D02*
D03*
X020374D02*
D03*
X020177D02*
D03*
X019980D02*
D03*
X019783D02*
D03*
X019587D02*
D03*
X019390D02*
D03*
X019193D02*
D03*
X018996D02*
D03*
X018799D02*
D03*
X018602D02*
D03*
X018406D02*
D03*
X018209D02*
D03*
D28*
X015542Y021794D02*
D03*
Y022700D02*
D03*
Y023606D02*
D03*
D29*
X013258Y022700D02*
D03*
D30*
X030118Y018977D02*
D03*
Y019489D02*
D03*
X030787Y018977D02*
D03*
Y019489D02*
D03*
X022150Y020456D02*
D03*
Y019944D02*
D03*
X012150Y023094D02*
D03*
Y023606D02*
D03*
D31*
X029580Y022744D02*
D03*
X028832D02*
D03*
X029206Y021956D02*
D03*
X030974Y022744D02*
D03*
X030226D02*
D03*
X030600Y021956D02*
D03*
X028076Y023306D02*
D03*
X028824D02*
D03*
X028450Y024094D02*
D03*
X029476Y023306D02*
D03*
X030224D02*
D03*
X029850Y024094D02*
D03*
M02*
