G04*
G04 #@! TF.GenerationSoftware,Altium Limited,Altium Designer,19.1.5 (86)*
G04*
G04 Layer_Color=65535*
%FSAX24Y24*%
%MOIN*%
G70*
G01*
G75*
%ADD10C,0.0236*%
%ADD11C,0.0098*%
%ADD12C,0.0079*%
%ADD13C,0.0100*%
%ADD14C,0.0060*%
D10*
X025020Y012717D02*
G03*
X025020Y012717I-000118J000000D01*
G01*
X026693Y018957D02*
G03*
X026693Y018957I-000118J000000D01*
G01*
X018386Y017953D02*
G03*
X018386Y017953I-000118J000000D01*
G01*
D11*
X024104Y013230D02*
G03*
X024104Y013230I-000049J000000D01*
G01*
X025748Y019400D02*
G03*
X025748Y019400I-000049J000000D01*
G01*
X017480Y018287D02*
G03*
X017480Y018287I-000049J000000D01*
G01*
X015591Y021391D02*
G03*
X015591Y021391I-000049J000000D01*
G01*
X029973Y022803D02*
G03*
X029973Y022803I-000049J000000D01*
G01*
X031368D02*
G03*
X031368Y022803I-000049J000000D01*
G01*
X027781Y023247D02*
G03*
X027781Y023247I-000049J000000D01*
G01*
X029181D02*
G03*
X029181Y023247I-000049J000000D01*
G01*
D12*
X024508Y011181D02*
X025728D01*
X024508Y013110D02*
X025728D01*
Y011181D02*
Y013110D01*
X024508Y011181D02*
Y013110D01*
X013593Y013513D02*
X015207D01*
X013593Y011387D02*
X015207D01*
X026181Y016004D02*
Y019350D01*
X028071Y016004D02*
Y019350D01*
X026181D02*
X028071D01*
X026181Y016004D02*
X028071D01*
X017874Y013937D02*
Y018346D01*
X022283Y013937D02*
Y018346D01*
X017874D02*
X022283D01*
X017874Y013937D02*
X022283D01*
X015168Y021381D02*
Y024019D01*
X013632Y021381D02*
Y024019D01*
Y021381D02*
X015168D01*
X013632Y024019D02*
X015168D01*
X029796Y022074D02*
Y022389D01*
X029491Y022074D02*
X029796D01*
X028615D02*
Y022389D01*
Y022074D02*
X028920D01*
X031191D02*
Y022389D01*
X030885Y022074D02*
X031191D01*
X030009D02*
Y022389D01*
Y022074D02*
X030315D01*
X008858Y020079D02*
X012047D01*
X008858Y015276D02*
Y020079D01*
Y015276D02*
X012047D01*
X013622Y015157D02*
X015118D01*
Y020197D01*
X013622D02*
X015118D01*
X009488Y012713D02*
Y014524D01*
X010866D01*
X009488Y012713D02*
X010866D01*
X011988D02*
Y014524D01*
X027859Y023661D02*
Y023976D01*
X028165D01*
X029041Y023661D02*
Y023976D01*
X028735D02*
X029041D01*
X029259Y023661D02*
Y023976D01*
X029565D01*
X030441Y023661D02*
Y023976D01*
X030135D02*
X030441D01*
D13*
X019705Y023194D02*
X024193D01*
X019705Y021344D02*
X024193D01*
X019705Y022860D02*
Y023194D01*
X024193Y022860D02*
Y023194D01*
X019705Y021344D02*
Y021679D01*
X024193Y021344D02*
Y021679D01*
D14*
X020157Y011726D02*
X020357D01*
X020257D01*
Y011426D01*
X020457D02*
X020557D01*
X020507D01*
Y011726D01*
X020457Y011676D01*
X020707D02*
X020757Y011726D01*
X020857D01*
X020907Y011676D01*
Y011476D01*
X020857Y011426D01*
X020757D01*
X020707Y011476D01*
Y011676D01*
X023209Y013686D02*
Y013436D01*
X023259Y013386D01*
X023359D01*
X023409Y013436D01*
Y013686D01*
X023659Y013386D02*
Y013686D01*
X023509Y013536D01*
X023709D01*
X024422Y013793D02*
X024372Y013843D01*
X024272D01*
X024222Y013793D01*
Y013593D01*
X024272Y013543D01*
X024372D01*
X024422Y013593D01*
X024722Y013543D02*
X024522D01*
X024722Y013743D01*
Y013793D01*
X024672Y013843D01*
X024572D01*
X024522Y013793D01*
X024972Y013543D02*
Y013843D01*
X024822Y013693D01*
X025022D01*
X030827Y011225D02*
X031027D01*
X030927D01*
Y010925D01*
X031127D02*
X031227D01*
X031177D01*
Y011225D01*
X031127Y011175D01*
X031577Y011225D02*
X031377D01*
Y011075D01*
X031477Y011125D01*
X031527D01*
X031577Y011075D01*
Y010975D01*
X031527Y010925D01*
X031427D01*
X031377Y010975D01*
X022874Y012920D02*
X023074D01*
X022974D01*
Y012620D01*
X023174Y012670D02*
X023224Y012620D01*
X023324D01*
X023374Y012670D01*
Y012870D01*
X023324Y012920D01*
X023224D01*
X023174Y012870D01*
Y012820D01*
X023224Y012770D01*
X023374D01*
X013743Y014887D02*
X013543D01*
Y014737D01*
X013643D01*
X013543D01*
Y014587D01*
X013843Y014887D02*
Y014587D01*
X013993D01*
X014043Y014637D01*
Y014687D01*
X013993Y014737D01*
X013843D01*
X013993D01*
X014043Y014787D01*
Y014837D01*
X013993Y014887D01*
X013843D01*
X014143Y014587D02*
X014243D01*
X014193D01*
Y014887D01*
X014143Y014837D01*
X026240Y019926D02*
Y019676D01*
X026290Y019626D01*
X026390D01*
X026440Y019676D01*
Y019926D01*
X026540Y019876D02*
X026590Y019926D01*
X026690D01*
X026740Y019876D01*
Y019826D01*
X026690Y019776D01*
X026640D01*
X026690D01*
X026740Y019726D01*
Y019676D01*
X026690Y019626D01*
X026590D01*
X026540Y019676D01*
X010751Y023340D02*
X010701Y023390D01*
X010601D01*
X010551Y023340D01*
Y023290D01*
X010601Y023240D01*
X010701D01*
X010751Y023191D01*
Y023141D01*
X010701Y023091D01*
X010601D01*
X010551Y023141D01*
X010851Y023091D02*
X010951D01*
X010901D01*
Y023390D01*
X010851Y023340D01*
X014826Y014079D02*
X014626D01*
Y013929D01*
X014726D01*
X014626D01*
Y013780D01*
X014926D02*
X015026D01*
X014976D01*
Y014079D01*
X014926Y014029D01*
X027795Y012520D02*
Y012820D01*
X027945D01*
X027995Y012770D01*
Y012670D01*
X027945Y012620D01*
X027795D01*
X027895D02*
X027995Y012520D01*
X028095D02*
X028195D01*
X028145D01*
Y012820D01*
X028095Y012770D01*
X028545Y012820D02*
X028345D01*
Y012670D01*
X028445Y012720D01*
X028495D01*
X028545Y012670D01*
Y012570D01*
X028495Y012520D01*
X028395D01*
X028345Y012570D01*
X027795Y013091D02*
Y013390D01*
X027945D01*
X027995Y013340D01*
Y013240D01*
X027945Y013191D01*
X027795D01*
X027895D02*
X027995Y013091D01*
X028095D02*
X028195D01*
X028145D01*
Y013390D01*
X028095Y013340D01*
X028495Y013091D02*
Y013390D01*
X028345Y013240D01*
X028545D01*
X030121Y015694D02*
X029921D01*
Y015544D01*
X030021D01*
X029921D01*
Y015394D01*
X030221Y015694D02*
Y015394D01*
X030371D01*
X030421Y015444D01*
Y015494D01*
X030371Y015544D01*
X030221D01*
X030371D01*
X030421Y015594D01*
Y015644D01*
X030371Y015694D01*
X030221D01*
X030521Y015644D02*
X030571Y015694D01*
X030671D01*
X030721Y015644D01*
Y015594D01*
X030671Y015544D01*
X030621D01*
X030671D01*
X030721Y015494D01*
Y015444D01*
X030671Y015394D01*
X030571D01*
X030521Y015444D01*
X030121Y017170D02*
X029921D01*
Y017020D01*
X030021D01*
X029921D01*
Y016870D01*
X030221Y017170D02*
Y016870D01*
X030371D01*
X030421Y016920D01*
Y016970D01*
X030371Y017020D01*
X030221D01*
X030371D01*
X030421Y017070D01*
Y017120D01*
X030371Y017170D01*
X030221D01*
X030721Y016870D02*
X030521D01*
X030721Y017070D01*
Y017120D01*
X030671Y017170D01*
X030571D01*
X030521Y017120D01*
X025179Y014384D02*
X025129Y014434D01*
X025029D01*
X024979Y014384D01*
Y014184D01*
X025029Y014134D01*
X025129D01*
X025179Y014184D01*
X025479Y014134D02*
X025279D01*
X025479Y014334D01*
Y014384D01*
X025429Y014434D01*
X025329D01*
X025279Y014384D01*
X025579D02*
X025629Y014434D01*
X025729D01*
X025779Y014384D01*
Y014334D01*
X025729Y014284D01*
X025679D01*
X025729D01*
X025779Y014234D01*
Y014184D01*
X025729Y014134D01*
X025629D01*
X025579Y014184D01*
X030751Y017651D02*
X030701Y017701D01*
X030601D01*
X030551Y017651D01*
Y017452D01*
X030601Y017402D01*
X030701D01*
X030751Y017452D01*
X031051Y017402D02*
X030851D01*
X031051Y017602D01*
Y017651D01*
X031001Y017701D01*
X030901D01*
X030851Y017651D01*
X031351Y017402D02*
X031151D01*
X031351Y017602D01*
Y017651D01*
X031301Y017701D01*
X031201D01*
X031151Y017651D01*
X027776Y011225D02*
X027976D01*
X027876D01*
Y010925D01*
X028075D02*
X028175D01*
X028125D01*
Y011225D01*
X028075Y011175D01*
X028475Y010925D02*
Y011225D01*
X028325Y011075D01*
X028525D01*
X029803Y011225D02*
X030003D01*
X029903D01*
Y010925D01*
X030103D02*
X030203D01*
X030153D01*
Y011225D01*
X030103Y011175D01*
X030353D02*
X030403Y011225D01*
X030503D01*
X030553Y011175D01*
Y011125D01*
X030503Y011075D01*
X030453D01*
X030503D01*
X030553Y011025D01*
Y010975D01*
X030503Y010925D01*
X030403D01*
X030353Y010975D01*
X028819Y011225D02*
X029019D01*
X028919D01*
Y010925D01*
X029119D02*
X029219D01*
X029169D01*
Y011225D01*
X029119Y011175D01*
X029569Y010925D02*
X029369D01*
X029569Y011125D01*
Y011175D01*
X029519Y011225D01*
X029419D01*
X029369Y011175D01*
X021217Y011726D02*
X021417D01*
X021317D01*
Y011426D01*
X021517D02*
X021617D01*
X021567D01*
Y011726D01*
X021517Y011676D01*
X021767Y011426D02*
X021867D01*
X021817D01*
Y011726D01*
X021767Y011676D01*
X019094Y011726D02*
X019294D01*
X019194D01*
Y011426D01*
X019394Y011676D02*
X019444Y011726D01*
X019544D01*
X019594Y011676D01*
Y011626D01*
X019544Y011576D01*
X019594Y011526D01*
Y011476D01*
X019544Y011426D01*
X019444D01*
X019394Y011476D01*
Y011526D01*
X019444Y011576D01*
X019394Y011626D01*
Y011676D01*
X019444Y011576D02*
X019544D01*
X023593Y018961D02*
X023792D01*
X023692D01*
Y018661D01*
X023892Y018961D02*
X024092D01*
Y018911D01*
X023892Y018711D01*
Y018661D01*
X024281Y017170D02*
X024481D01*
X024381D01*
Y016870D01*
X024781Y017170D02*
X024681Y017120D01*
X024581Y017020D01*
Y016920D01*
X024631Y016870D01*
X024731D01*
X024781Y016920D01*
Y016970D01*
X024731Y017020D01*
X024581D01*
X015906Y020950D02*
X016105D01*
X016005D01*
Y020650D01*
X016205Y020900D02*
X016255Y020950D01*
X016355D01*
X016405Y020900D01*
Y020850D01*
X016355Y020800D01*
X016305D01*
X016355D01*
X016405Y020750D01*
Y020700D01*
X016355Y020650D01*
X016255D01*
X016205Y020700D01*
X017835Y023390D02*
X018035D01*
X017935D01*
Y023091D01*
X018334D02*
X018135D01*
X018334Y023290D01*
Y023340D01*
X018284Y023390D01*
X018185D01*
X018135Y023340D01*
X013450Y020950D02*
X013650D01*
X013550D01*
Y020650D01*
X013750D02*
X013850D01*
X013800D01*
Y020950D01*
X013750Y020900D01*
X015906Y020300D02*
X016105D01*
X016005D01*
Y020000D01*
X016405Y020300D02*
X016205D01*
Y020150D01*
X016305Y020200D01*
X016355D01*
X016405Y020150D01*
Y020050D01*
X016355Y020000D01*
X016255D01*
X016205Y020050D01*
X017700Y019650D02*
X017900D01*
X017800D01*
Y019350D01*
X018150D02*
Y019650D01*
X018000Y019500D01*
X018200D01*
X028035Y022392D02*
Y022592D01*
X027985Y022642D01*
X027885D01*
X027835Y022592D01*
Y022392D01*
X027885Y022343D01*
X027985D01*
X027935Y022442D02*
X028035Y022343D01*
X027985D02*
X028035Y022392D01*
X028334Y022343D02*
X028135D01*
X028334Y022542D01*
Y022592D01*
X028284Y022642D01*
X028185D01*
X028135Y022592D01*
X017776Y011457D02*
Y011757D01*
X017926D01*
X017976Y011707D01*
Y011607D01*
X017926Y011557D01*
X017776D01*
X017876D02*
X017976Y011457D01*
X018075D02*
X018175D01*
X018125D01*
Y011757D01*
X018075Y011707D01*
X010700Y012457D02*
Y012157D01*
X010900D01*
X011200Y012457D02*
X011000D01*
Y012157D01*
X011200D01*
X011000Y012307D02*
X011100D01*
X011300Y012457D02*
Y012157D01*
X011450D01*
X011500Y012207D01*
Y012407D01*
X011450Y012457D01*
X011300D01*
X011600Y012157D02*
X011700D01*
X011650D01*
Y012457D01*
X011600Y012407D01*
X021549Y023819D02*
Y023769D01*
X021649Y023669D01*
X021749Y023769D01*
Y023819D01*
X021649Y023669D02*
Y023519D01*
X021849D02*
X021949D01*
X021899D01*
Y023819D01*
X021849Y023769D01*
X017300Y019100D02*
Y018850D01*
X017350Y018800D01*
X017450D01*
X017500Y018850D01*
Y019100D01*
X017800Y018800D02*
X017600D01*
X017800Y019000D01*
Y019050D01*
X017750Y019100D01*
X017650D01*
X017600Y019050D01*
X012962Y024000D02*
Y023750D01*
X013012Y023700D01*
X013112D01*
X013162Y023750D01*
Y024000D01*
X013262Y023700D02*
X013362D01*
X013312D01*
Y024000D01*
X013262Y023950D01*
X027402Y020669D02*
Y020969D01*
X027552D01*
X027602Y020919D01*
Y020819D01*
X027552Y020769D01*
X027402D01*
X027502D02*
X027602Y020669D01*
X027701D02*
X027801D01*
X027751D01*
Y020969D01*
X027701Y020919D01*
X027951D02*
X028001Y020969D01*
X028101D01*
X028151Y020919D01*
Y020869D01*
X028101Y020819D01*
X028051D01*
X028101D01*
X028151Y020769D01*
Y020719D01*
X028101Y020669D01*
X028001D01*
X027951Y020719D01*
X029882Y018317D02*
Y018617D01*
X030032D01*
X030082Y018567D01*
Y018467D01*
X030032Y018417D01*
X029882D01*
X029982D02*
X030082Y018317D01*
X030182D02*
X030282D01*
X030232D01*
Y018617D01*
X030182Y018567D01*
X030632Y018317D02*
X030432D01*
X030632Y018517D01*
Y018567D01*
X030582Y018617D01*
X030482D01*
X030432Y018567D01*
X031575Y012185D02*
Y012485D01*
X031725D01*
X031775Y012435D01*
Y012335D01*
X031725Y012285D01*
X031575D01*
X031675D02*
X031775Y012185D01*
X031875D02*
X031975D01*
X031925D01*
Y012485D01*
X031875Y012435D01*
X032125Y012185D02*
X032225D01*
X032175D01*
Y012485D01*
X032125Y012435D01*
X027402Y021654D02*
Y021953D01*
X027552D01*
X027602Y021903D01*
Y021803D01*
X027552Y021754D01*
X027402D01*
X027502D02*
X027602Y021654D01*
X027701D02*
X027801D01*
X027751D01*
Y021953D01*
X027701Y021903D01*
X027951D02*
X028001Y021953D01*
X028101D01*
X028151Y021903D01*
Y021704D01*
X028101Y021654D01*
X028001D01*
X027951Y021704D01*
Y021903D01*
X030850Y018317D02*
Y018617D01*
X031000D01*
X031050Y018567D01*
Y018467D01*
X031000Y018417D01*
X030850D01*
X030950D02*
X031050Y018317D01*
X031150Y018367D02*
X031200Y018317D01*
X031300D01*
X031350Y018367D01*
Y018567D01*
X031300Y018617D01*
X031200D01*
X031150Y018567D01*
Y018517D01*
X031200Y018467D01*
X031350D01*
X029843Y013386D02*
Y013686D01*
X029992D01*
X030042Y013636D01*
Y013536D01*
X029992Y013486D01*
X029843D01*
X029942D02*
X030042Y013386D01*
X030142Y013636D02*
X030192Y013686D01*
X030292D01*
X030342Y013636D01*
Y013586D01*
X030292Y013536D01*
X030342Y013486D01*
Y013436D01*
X030292Y013386D01*
X030192D01*
X030142Y013436D01*
Y013486D01*
X030192Y013536D01*
X030142Y013586D01*
Y013636D01*
X030192Y013536D02*
X030292D01*
X021909Y020800D02*
Y021100D01*
X022059D01*
X022109Y021050D01*
Y020950D01*
X022059Y020900D01*
X021909D01*
X022009D02*
X022109Y020800D01*
X022209Y021100D02*
X022409D01*
Y021050D01*
X022209Y020850D01*
Y020800D01*
X011900Y023950D02*
Y024250D01*
X012050D01*
X012100Y024200D01*
Y024100D01*
X012050Y024050D01*
X011900D01*
X012000D02*
X012100Y023950D01*
X012400Y024250D02*
X012300Y024200D01*
X012200Y024100D01*
Y024000D01*
X012250Y023950D01*
X012350D01*
X012400Y024000D01*
Y024050D01*
X012350Y024100D01*
X012200D01*
X022776Y020315D02*
Y020615D01*
X022926D01*
X022976Y020565D01*
Y020465D01*
X022926Y020415D01*
X022776D01*
X022876D02*
X022976Y020315D01*
X023275Y020615D02*
X023075D01*
Y020465D01*
X023175Y020515D01*
X023225D01*
X023275Y020465D01*
Y020365D01*
X023225Y020315D01*
X023125D01*
X023075Y020365D01*
X017100Y021600D02*
Y021900D01*
X017250D01*
X017300Y021850D01*
Y021750D01*
X017250Y021700D01*
X017100D01*
X017200D02*
X017300Y021600D01*
X017550D02*
Y021900D01*
X017400Y021750D01*
X017600D01*
X016450Y018050D02*
Y018350D01*
X016600D01*
X016650Y018300D01*
Y018200D01*
X016600Y018150D01*
X016450D01*
X016550D02*
X016650Y018050D01*
X016750Y018300D02*
X016800Y018350D01*
X016900D01*
X016950Y018300D01*
Y018250D01*
X016900Y018200D01*
X016850D01*
X016900D01*
X016950Y018150D01*
Y018100D01*
X016900Y018050D01*
X016800D01*
X016750Y018100D01*
X016450Y018800D02*
Y019100D01*
X016600D01*
X016650Y019050D01*
Y018950D01*
X016600Y018900D01*
X016450D01*
X016550D02*
X016650Y018800D01*
X016950D02*
X016750D01*
X016950Y019000D01*
Y019050D01*
X016900Y019100D01*
X016800D01*
X016750Y019050D01*
X031050Y023200D02*
Y023400D01*
X031000Y023450D01*
X030900D01*
X030850Y023400D01*
Y023200D01*
X030900Y023150D01*
X031000D01*
X030950Y023250D02*
X031050Y023150D01*
X031000D02*
X031050Y023200D01*
X031150Y023150D02*
X031250D01*
X031200D01*
Y023450D01*
X031150Y023400D01*
X028724Y014670D02*
X028624D01*
X028674D01*
Y014420D01*
X028624Y014370D01*
X028574D01*
X028524Y014420D01*
X028824Y014620D02*
X028874Y014670D01*
X028973D01*
X029023Y014620D01*
Y014570D01*
X028973Y014520D01*
X028923D01*
X028973D01*
X029023Y014470D01*
Y014420D01*
X028973Y014370D01*
X028874D01*
X028824Y014420D01*
X028783Y020969D02*
X028683D01*
X028733D01*
Y020719D01*
X028683Y020669D01*
X028633D01*
X028583Y020719D01*
X029083Y020669D02*
X028883D01*
X029083Y020869D01*
Y020919D01*
X029033Y020969D01*
X028933D01*
X028883Y020919D01*
X011991Y020950D02*
X011891D01*
X011941D01*
Y020700D01*
X011891Y020650D01*
X011841D01*
X011791Y020700D01*
X012091Y020650D02*
X012191D01*
X012141D01*
Y020950D01*
X012091Y020900D01*
X027500Y024400D02*
Y024100D01*
X027650D01*
X027700Y024150D01*
Y024350D01*
X027650Y024400D01*
X027500D01*
X028000Y024100D02*
X027800D01*
X028000Y024300D01*
Y024350D01*
X027950Y024400D01*
X027850D01*
X027800Y024350D01*
X030315Y024400D02*
Y024100D01*
X030465D01*
X030515Y024150D01*
Y024350D01*
X030465Y024400D01*
X030315D01*
X030614Y024100D02*
X030714D01*
X030664D01*
Y024400D01*
X030614Y024350D01*
X017217Y024250D02*
X017167Y024300D01*
X017067D01*
X017017Y024250D01*
Y024050D01*
X017067Y024000D01*
X017167D01*
X017217Y024050D01*
X017517Y024000D02*
X017317D01*
X017517Y024200D01*
Y024250D01*
X017467Y024300D01*
X017367D01*
X017317Y024250D01*
X023517Y014924D02*
X023467Y014974D01*
X023367D01*
X023317Y014924D01*
Y014724D01*
X023367Y014674D01*
X023467D01*
X023517Y014724D01*
X023817Y014674D02*
X023617D01*
X023817Y014874D01*
Y014924D01*
X023767Y014974D01*
X023667D01*
X023617Y014924D01*
X023917Y014674D02*
X024017D01*
X023967D01*
Y014974D01*
X023917Y014924D01*
X015550Y014368D02*
X015500Y014418D01*
X015400D01*
X015350Y014368D01*
Y014168D01*
X015400Y014118D01*
X015500D01*
X015550Y014168D01*
X015850Y014118D02*
X015650D01*
X015850Y014318D01*
Y014368D01*
X015800Y014418D01*
X015700D01*
X015650Y014368D01*
X015950D02*
X016000Y014418D01*
X016100D01*
X016150Y014368D01*
Y014168D01*
X016100Y014118D01*
X016000D01*
X015950Y014168D01*
Y014368D01*
X015550Y015050D02*
X015500Y015100D01*
X015400D01*
X015350Y015050D01*
Y014850D01*
X015400Y014800D01*
X015500D01*
X015550Y014850D01*
X015650Y014800D02*
X015750D01*
X015700D01*
Y015100D01*
X015650Y015050D01*
X015900Y014850D02*
X015950Y014800D01*
X016050D01*
X016100Y014850D01*
Y015050D01*
X016050Y015100D01*
X015950D01*
X015900Y015050D01*
Y015000D01*
X015950Y014950D01*
X016100D01*
X015515Y016628D02*
X015465Y016678D01*
X015365D01*
X015315Y016628D01*
Y016428D01*
X015365Y016378D01*
X015465D01*
X015515Y016428D01*
X015615Y016378D02*
X015715D01*
X015665D01*
Y016678D01*
X015615Y016628D01*
X015865D02*
X015915Y016678D01*
X016015D01*
X016065Y016628D01*
Y016578D01*
X016015Y016528D01*
X016065Y016478D01*
Y016428D01*
X016015Y016378D01*
X015915D01*
X015865Y016428D01*
Y016478D01*
X015915Y016528D01*
X015865Y016578D01*
Y016628D01*
X015915Y016528D02*
X016015D01*
X021401Y019600D02*
X021351Y019650D01*
X021251D01*
X021201Y019600D01*
Y019400D01*
X021251Y019350D01*
X021351D01*
X021401Y019400D01*
X021501Y019350D02*
X021601D01*
X021551D01*
Y019650D01*
X021501Y019600D01*
X021751Y019650D02*
X021951D01*
Y019600D01*
X021751Y019400D01*
Y019350D01*
X020790Y021050D02*
X020740Y021100D01*
X020641D01*
X020591Y021050D01*
Y020850D01*
X020641Y020800D01*
X020740D01*
X020790Y020850D01*
X020890Y020800D02*
X020990D01*
X020940D01*
Y021100D01*
X020890Y021050D01*
X021340Y021100D02*
X021240Y021050D01*
X021140Y020950D01*
Y020850D01*
X021190Y020800D01*
X021290D01*
X021340Y020850D01*
Y020900D01*
X021290Y020950D01*
X021140D01*
X018035Y012929D02*
X017985Y012979D01*
X017885D01*
X017835Y012929D01*
Y012729D01*
X017885Y012679D01*
X017985D01*
X018035Y012729D01*
X018135Y012679D02*
X018235D01*
X018185D01*
Y012979D01*
X018135Y012929D01*
X018584Y012979D02*
X018384D01*
Y012829D01*
X018484Y012879D01*
X018534D01*
X018584Y012829D01*
Y012729D01*
X018534Y012679D01*
X018434D01*
X018384Y012729D01*
X020189Y019600D02*
X020139Y019650D01*
X020039D01*
X019989Y019600D01*
Y019400D01*
X020039Y019350D01*
X020139D01*
X020189Y019400D01*
X020289Y019350D02*
X020389D01*
X020339D01*
Y019650D01*
X020289Y019600D01*
X020689Y019350D02*
Y019650D01*
X020539Y019500D01*
X020739D01*
X017090Y021176D02*
X017040Y021226D01*
X016940D01*
X016890Y021176D01*
Y020976D01*
X016940Y020926D01*
X017040D01*
X017090Y020976D01*
X017190Y020926D02*
X017290D01*
X017240D01*
Y021226D01*
X017190Y021176D01*
X017440D02*
X017490Y021226D01*
X017590D01*
X017640Y021176D01*
Y021126D01*
X017590Y021076D01*
X017540D01*
X017590D01*
X017640Y021026D01*
Y020976D01*
X017590Y020926D01*
X017490D01*
X017440Y020976D01*
X018812Y019606D02*
X018762Y019656D01*
X018662D01*
X018612Y019606D01*
Y019406D01*
X018662Y019356D01*
X018762D01*
X018812Y019406D01*
X018912Y019356D02*
X019012D01*
X018962D01*
Y019656D01*
X018912Y019606D01*
X019362Y019356D02*
X019162D01*
X019362Y019556D01*
Y019606D01*
X019312Y019656D01*
X019212D01*
X019162Y019606D01*
X019649Y021050D02*
X019599Y021100D01*
X019499D01*
X019449Y021050D01*
Y020850D01*
X019499Y020800D01*
X019599D01*
X019649Y020850D01*
X019749Y020800D02*
X019849D01*
X019799D01*
Y021100D01*
X019749Y021050D01*
X019999Y020800D02*
X020099D01*
X020049D01*
Y021100D01*
X019999Y021050D01*
X029039Y015644D02*
X028989Y015694D01*
X028889D01*
X028839Y015644D01*
Y015444D01*
X028889Y015394D01*
X028989D01*
X029039Y015444D01*
X029138Y015394D02*
X029238D01*
X029188D01*
Y015694D01*
X029138Y015644D01*
X029388D02*
X029438Y015694D01*
X029538D01*
X029588Y015644D01*
Y015444D01*
X029538Y015394D01*
X029438D01*
X029388Y015444D01*
Y015644D01*
X029331Y018567D02*
X029281Y018617D01*
X029181D01*
X029132Y018567D01*
Y018367D01*
X029181Y018317D01*
X029281D01*
X029331Y018367D01*
X029431D02*
X029481Y018317D01*
X029581D01*
X029631Y018367D01*
Y018567D01*
X029581Y018617D01*
X029481D01*
X029431Y018567D01*
Y018517D01*
X029481Y018467D01*
X029631D01*
X023586Y015919D02*
X023536Y015969D01*
X023436D01*
X023386Y015919D01*
Y015719D01*
X023436Y015669D01*
X023536D01*
X023586Y015719D01*
X023686Y015919D02*
X023736Y015969D01*
X023836D01*
X023886Y015919D01*
Y015869D01*
X023836Y015819D01*
X023886Y015769D01*
Y015719D01*
X023836Y015669D01*
X023736D01*
X023686Y015719D01*
Y015769D01*
X023736Y015819D01*
X023686Y015869D01*
Y015919D01*
X023736Y015819D02*
X023836D01*
X025535Y015919D02*
X025485Y015969D01*
X025385D01*
X025335Y015919D01*
Y015719D01*
X025385Y015669D01*
X025485D01*
X025535Y015719D01*
X025635Y015969D02*
X025834D01*
Y015919D01*
X025635Y015719D01*
Y015669D01*
X024649Y020112D02*
X024599Y020162D01*
X024499D01*
X024449Y020112D01*
Y019912D01*
X024499Y019862D01*
X024599D01*
X024649Y019912D01*
X024949Y020162D02*
X024849Y020112D01*
X024749Y020012D01*
Y019912D01*
X024799Y019862D01*
X024899D01*
X024949Y019912D01*
Y019962D01*
X024899Y020012D01*
X024749D01*
X016650Y019600D02*
X016600Y019650D01*
X016500D01*
X016450Y019600D01*
Y019400D01*
X016500Y019350D01*
X016600D01*
X016650Y019400D01*
X016950Y019650D02*
X016750D01*
Y019500D01*
X016850Y019550D01*
X016900D01*
X016950Y019500D01*
Y019400D01*
X016900Y019350D01*
X016800D01*
X016750Y019400D01*
X016650Y017700D02*
X016600Y017750D01*
X016500D01*
X016450Y017700D01*
Y017500D01*
X016500Y017450D01*
X016600D01*
X016650Y017500D01*
X016900Y017450D02*
Y017750D01*
X016750Y017600D01*
X016950D01*
X016500Y024250D02*
X016450Y024300D01*
X016350D01*
X016300Y024250D01*
Y024050D01*
X016350Y024000D01*
X016450D01*
X016500Y024050D01*
X016600Y024250D02*
X016650Y024300D01*
X016750D01*
X016800Y024250D01*
Y024200D01*
X016750Y024150D01*
X016700D01*
X016750D01*
X016800Y024100D01*
Y024050D01*
X016750Y024000D01*
X016650D01*
X016600Y024050D01*
X017200Y022400D02*
X017150Y022450D01*
X017050D01*
X017000Y022400D01*
Y022200D01*
X017050Y022150D01*
X017150D01*
X017200Y022200D01*
X017300Y022150D02*
X017400D01*
X017350D01*
Y022450D01*
X017300Y022400D01*
M02*
