M48
;Layer_Color=9474304
;FILE_FORMAT=2:4
INCH
;TYPE=PLATED
T1F00S00C0.0150
T2F00S00C0.0236
T3F00S00C0.0250
T4F00S00C0.0300
T5F00S00C0.0354
T6F00S00C0.0362
T7F00S00C0.0906
;TYPE=NON_PLATED
T8F00S00C0.0354
%
T01
X012400Y014118
X016750Y012852
X017126Y012106
X019980Y012778
X022618Y011922
X022795Y013760
X026535Y013694
X028917Y013780
X030081Y013132
X030197Y012657
X030453Y015028
X031181Y014528
X025247Y011538
X018284Y014980
X016034Y016033
X019300Y017901
X020374Y018047
X020965Y017901
X021358Y018169
X021862Y017677
X022756Y018570
X024449Y018750
Y018317
Y017874
Y017441
X024488Y016565
X023858Y016476
X026370Y016526
X029419Y017056
X029744Y017721
X030269
X030827Y018051
X031181Y017056
X030591Y021327
X029921Y020827
X030150Y022226
X028450Y021950
X027776Y020327
X027618Y019085
X025453Y022992
X022244Y023642
X022909Y021021
X019094Y021339
X018607Y023182
X021888Y015843
X030700Y023750
X013179Y021501
X011555Y022894
X015601Y017028
T02
X029406Y014028
Y014528
Y015028
Y020327
Y020827
Y021327
T03
X014154Y012461
X014400Y022700
T04
X019390Y012283
X020571
X021555
X022362Y012778
X028169Y011752
X029182
X030197
X031181
X023799Y017350
Y018169
X017969Y020152
X016900
X018100Y022573
X015450Y020800
X014400
T05
X011220Y013118
Y014118
T06
X013902Y017185
X014685
Y018169
X013902
T07
X012835Y015307
Y020047
T08
X011024Y020900
Y022573
M30
