G04*
G04 #@! TF.GenerationSoftware,Altium Limited,Altium Designer,19.1.5 (86)*
G04*
G04 Layer_Physical_Order=1*
G04 Layer_Color=255*
%FSAX24Y24*%
%MOIN*%
G70*
G01*
G75*
%ADD13C,0.0100*%
%ADD15R,0.0709X0.0295*%
%ADD16R,0.0709X0.0236*%
%ADD17R,0.0354X0.0512*%
%ADD18R,0.0354X0.0394*%
%ADD19O,0.0591X0.0236*%
%ADD20R,0.0906X0.2205*%
%ADD21O,0.0650X0.0157*%
%ADD22R,0.0335X0.0374*%
%ADD23R,0.0394X0.0354*%
%ADD24R,0.0630X0.1378*%
%ADD25R,0.2205X0.0827*%
%ADD26O,0.0571X0.0118*%
%ADD27O,0.0118X0.0571*%
%ADD28R,0.0846X0.0374*%
%ADD29R,0.0846X0.1280*%
%ADD30R,0.0374X0.0335*%
%ADD31R,0.0315X0.0354*%
%ADD55C,0.0200*%
%ADD56C,0.0400*%
%ADD57C,0.0600*%
%ADD58R,0.0394X0.0394*%
%ADD59C,0.0394*%
%ADD60C,0.1181*%
%ADD61C,0.0669*%
%ADD62C,0.0626*%
%ADD63C,0.0300*%
%ADD64C,0.0500*%
G36*
X026929Y010827D02*
X010255D01*
Y020668D01*
X010353Y020672D01*
X010355Y020672D01*
X010867D01*
X010867Y020672D01*
X010956Y020649D01*
X011024Y020640D01*
X011091Y020649D01*
X011153Y020675D01*
X011207Y020716D01*
X011248Y020770D01*
X011274Y020832D01*
X011283Y020900D01*
X011279Y020926D01*
X011346Y021026D01*
X011812D01*
Y021438D01*
X011812Y021482D01*
Y021533D01*
X011883Y021604D01*
X011986D01*
X012037Y021614D01*
X012080Y021642D01*
X012244Y021806D01*
X012272Y021849D01*
X012283Y021900D01*
Y022847D01*
X012417D01*
Y023259D01*
X012417Y023341D01*
Y023402D01*
X012488Y023473D01*
X012649D01*
X012735Y023440D01*
Y022750D01*
X013258D01*
Y022700D01*
X013308D01*
Y021960D01*
X013781D01*
Y022516D01*
X014100D01*
X014150Y022450D01*
X014223Y022394D01*
X014309Y022359D01*
X014350Y022354D01*
Y022700D01*
X014450D01*
Y022354D01*
X014491Y022359D01*
X014577Y022394D01*
X014650Y022450D01*
X014700Y022516D01*
X015019D01*
Y022413D01*
X015358D01*
Y022374D01*
X015372Y022304D01*
X015412Y022245D01*
X015471Y022186D01*
X015507Y022162D01*
X015482Y022062D01*
X015038D01*
Y021978D01*
X014733D01*
X014663Y021964D01*
X014603Y021924D01*
X014270Y021591D01*
X014230Y021532D01*
X014216Y021462D01*
Y021135D01*
X014208Y021132D01*
X014129Y021071D01*
X014068Y020992D01*
X014030Y020899D01*
X014017Y020800D01*
X014030Y020701D01*
X014068Y020608D01*
X014129Y020529D01*
X014208Y020468D01*
X014216Y020465D01*
Y020184D01*
X012620Y018588D01*
X012580Y018529D01*
X012566Y018458D01*
Y017000D01*
X012580Y016930D01*
X012620Y016870D01*
X013978Y015513D01*
Y014487D01*
X013893Y014450D01*
X013810Y014450D01*
X013379D01*
Y014347D01*
X013224D01*
X013154Y014333D01*
X013095Y014293D01*
X012823Y014022D01*
X012783Y013962D01*
X012769Y013892D01*
Y013632D01*
X012411D01*
Y011268D01*
X013476D01*
Y013632D01*
X013136D01*
Y013816D01*
X013279Y013958D01*
X013379Y013927D01*
Y013896D01*
X013810D01*
X013893Y013896D01*
X013977Y013858D01*
Y012741D01*
X013918Y012696D01*
X013865Y012627D01*
X013832Y012547D01*
X013821Y012461D01*
X013832Y012374D01*
X013865Y012294D01*
X013918Y012225D01*
X013987Y012172D01*
X014067Y012139D01*
X014154Y012128D01*
X014240Y012139D01*
X014320Y012172D01*
X014389Y012225D01*
X014442Y012294D01*
X014475Y012374D01*
X014486Y012461D01*
X014475Y012547D01*
X014442Y012627D01*
X014389Y012696D01*
X014344Y012730D01*
Y013896D01*
X014424D01*
Y014450D01*
X014345D01*
Y015589D01*
X014331Y015659D01*
X014291Y015718D01*
X012934Y017076D01*
Y018382D01*
X014530Y019979D01*
X014570Y020038D01*
X014584Y020108D01*
Y020465D01*
X014592Y020468D01*
X014671Y020529D01*
X014732Y020608D01*
X014770Y020701D01*
X014783Y020800D01*
X014770Y020899D01*
X014732Y020992D01*
X014671Y021071D01*
X014592Y021132D01*
X014584Y021135D01*
Y021386D01*
X014809Y021611D01*
X015038D01*
Y021527D01*
X016045D01*
Y021611D01*
X016273D01*
Y021527D01*
X016827D01*
Y022039D01*
X016847D01*
Y022266D01*
X016550D01*
Y022316D01*
X016500D01*
Y022593D01*
X016253D01*
Y022499D01*
X016065D01*
Y022650D01*
X015542D01*
Y022750D01*
X016065D01*
Y022901D01*
X016254D01*
Y022807D01*
X016500D01*
Y023084D01*
X016600D01*
Y022807D01*
X016847D01*
Y022901D01*
X016953D01*
Y022807D01*
X017200D01*
Y023084D01*
X017250D01*
Y023134D01*
X017547D01*
Y023361D01*
X017581Y023396D01*
X017702Y023396D01*
X017916Y023182D01*
Y022908D01*
X017908Y022905D01*
X017829Y022844D01*
X017768Y022764D01*
X017730Y022672D01*
X017717Y022573D01*
X017730Y022474D01*
X017768Y022381D01*
X017829Y022302D01*
X017908Y022241D01*
X018001Y022203D01*
X018100Y022190D01*
X018199Y022203D01*
X018239Y022219D01*
X018299Y022158D01*
X018299Y022036D01*
X018267Y022003D01*
X018217D01*
X018117Y022003D01*
X017705D01*
Y021469D01*
X017820D01*
Y021369D01*
X017712D01*
Y020815D01*
X017836D01*
Y020508D01*
X017777Y020484D01*
X017698Y020423D01*
X017637Y020344D01*
X017599Y020251D01*
X017586Y020152D01*
X017599Y020053D01*
X017637Y019960D01*
X017698Y019881D01*
X017777Y019820D01*
X017836Y019796D01*
Y019645D01*
X017847Y019594D01*
X017875Y019551D01*
X018119Y019307D01*
X018162Y019279D01*
X018213Y019269D01*
X018663D01*
X018682Y019249D01*
X018666Y019183D01*
X018638Y019151D01*
X018602Y019158D01*
X018548Y019147D01*
X018504Y019117D01*
X018460Y019147D01*
X018406Y019158D01*
X018351Y019147D01*
X018307Y019117D01*
X018263Y019147D01*
X018209Y019158D01*
X018154Y019147D01*
X018108Y019116D01*
X018078Y019070D01*
X018067Y019016D01*
Y018662D01*
X017967Y018621D01*
X017528Y019059D01*
X017485Y019088D01*
X017435Y019098D01*
X016360D01*
Y019217D01*
X016360Y019217D01*
X016380Y019273D01*
X016380D01*
X016380Y019309D01*
Y019827D01*
X015868D01*
Y019847D01*
X015641D01*
Y019550D01*
X015591D01*
Y019500D01*
X015314D01*
Y019301D01*
X015314Y019253D01*
X015347Y019183D01*
X015328Y019128D01*
X015283Y019083D01*
X014161D01*
X014110Y019073D01*
X014067Y019044D01*
X013808Y018785D01*
X013779Y018742D01*
X013769Y018691D01*
Y018563D01*
X013692Y018531D01*
X013606Y018465D01*
X013539Y018378D01*
X013498Y018278D01*
X013483Y018169D01*
X013498Y018061D01*
X013539Y017960D01*
X013606Y017874D01*
X013692Y017807D01*
X013793Y017765D01*
X013902Y017751D01*
X014010Y017765D01*
X014111Y017807D01*
X014197Y017874D01*
X014233Y017920D01*
X014244Y017925D01*
X014342D01*
X014354Y017920D01*
X014389Y017874D01*
X014476Y017807D01*
X014577Y017765D01*
X014685Y017751D01*
X014793Y017765D01*
X014894Y017807D01*
X014981Y017874D01*
X015047Y017960D01*
X015079Y018037D01*
X015278D01*
X015333Y017937D01*
X015314Y017897D01*
X015314Y017819D01*
Y017650D01*
X015591D01*
Y017550D01*
X015314D01*
Y017303D01*
X015383D01*
X015412Y017230D01*
X015417Y017203D01*
X015365Y017125D01*
X015356Y017078D01*
X015846D01*
X015836Y017125D01*
X015784Y017203D01*
X015790Y017230D01*
X015818Y017303D01*
X015868D01*
Y017323D01*
X016380D01*
Y017877D01*
X016380D01*
X016360Y017902D01*
Y018047D01*
X016502D01*
X016553Y018057D01*
X016596Y018085D01*
X017069Y018558D01*
X017327D01*
X017632Y018254D01*
X017591Y018154D01*
X017205D01*
X017150Y018143D01*
X017104Y018112D01*
X017074Y018066D01*
X017063Y018012D01*
X017074Y017958D01*
X017103Y017913D01*
X017074Y017869D01*
X017063Y017815D01*
X017074Y017761D01*
X017103Y017717D01*
X017074Y017672D01*
X017063Y017618D01*
X017074Y017564D01*
X017103Y017520D01*
X017074Y017476D01*
X017063Y017421D01*
X017074Y017367D01*
X017103Y017323D01*
X017074Y017279D01*
X017063Y017224D01*
X017074Y017170D01*
X017103Y017126D01*
X017074Y017082D01*
X017063Y017028D01*
X017074Y016973D01*
X017103Y016929D01*
X017074Y016885D01*
X017063Y016831D01*
X017074Y016776D01*
X017103Y016732D01*
X017074Y016688D01*
X017063Y016634D01*
X017074Y016580D01*
X017103Y016535D01*
X017074Y016491D01*
X017063Y016437D01*
X017074Y016383D01*
X017103Y016339D01*
X017074Y016294D01*
X017063Y016240D01*
X016974Y016176D01*
X016845D01*
Y016288D01*
X016865D01*
Y016515D01*
X016272D01*
Y016288D01*
X016216Y016211D01*
X016192Y016205D01*
X016124Y016250D01*
X016034Y016268D01*
X015945Y016250D01*
X015868Y016199D01*
X015818Y016123D01*
X015800Y016033D01*
X015818Y015944D01*
X015851Y015894D01*
Y015727D01*
X015777D01*
Y015173D01*
X015899D01*
Y014874D01*
X015909Y014824D01*
X015938Y014781D01*
X016146Y014572D01*
X016189Y014543D01*
X016240Y014533D01*
X016273D01*
Y014411D01*
X016253D01*
Y014184D01*
X016550D01*
Y014084D01*
X016253D01*
Y013857D01*
X016417D01*
Y013838D01*
X016428Y013787D01*
X016456Y013744D01*
X016617Y013583D01*
Y013064D01*
X016570Y013033D01*
X016515Y012950D01*
X016505Y012902D01*
X016750D01*
Y012852D01*
X016800D01*
Y012607D01*
X016848Y012617D01*
X016930Y012672D01*
X016962Y012720D01*
X017134D01*
Y012575D01*
X017381D01*
Y012852D01*
X017431D01*
Y012902D01*
X017728D01*
Y013130D01*
X017708D01*
Y013641D01*
X017564D01*
Y014130D01*
X017657D01*
X017712Y014141D01*
X017758Y014171D01*
X017788Y014217D01*
X017799Y014272D01*
X017788Y014326D01*
X017771Y014353D01*
X017772Y014354D01*
X017807Y014406D01*
X017810Y014418D01*
X017431D01*
Y014519D01*
X017810D01*
X017807Y014531D01*
X017772Y014583D01*
X017771Y014584D01*
X017788Y014611D01*
X017799Y014665D01*
X017788Y014720D01*
X017759Y014764D01*
X017788Y014808D01*
X017799Y014862D01*
X017788Y014916D01*
X017759Y014961D01*
X017788Y015005D01*
X017799Y015059D01*
X017788Y015113D01*
X017759Y015157D01*
X017788Y015202D01*
X017799Y015256D01*
X017788Y015310D01*
X017771Y015337D01*
X017772Y015338D01*
X017807Y015391D01*
X017810Y015403D01*
X017431D01*
Y015503D01*
X017810D01*
X017807Y015515D01*
X017772Y015567D01*
X017771Y015569D01*
X017788Y015595D01*
X017799Y015650D01*
X017788Y015704D01*
X017759Y015748D01*
X017788Y015792D01*
X017799Y015846D01*
X017788Y015901D01*
X017759Y015945D01*
X017788Y015989D01*
X017799Y016043D01*
X017788Y016098D01*
X017759Y016142D01*
X017788Y016186D01*
X017799Y016240D01*
X017788Y016294D01*
X017759Y016339D01*
X017788Y016383D01*
X017799Y016437D01*
X017788Y016491D01*
X017759Y016535D01*
X017788Y016580D01*
X017799Y016634D01*
X017788Y016688D01*
X017759Y016732D01*
X017788Y016776D01*
X017799Y016831D01*
X017788Y016885D01*
X017759Y016929D01*
X017788Y016973D01*
X017799Y017028D01*
X017788Y017082D01*
X017759Y017126D01*
X017788Y017170D01*
X017799Y017224D01*
X017788Y017279D01*
X017759Y017323D01*
X017788Y017367D01*
X017799Y017421D01*
X017788Y017476D01*
X017759Y017520D01*
X017788Y017564D01*
X017799Y017618D01*
X017788Y017672D01*
X017759Y017717D01*
X017788Y017761D01*
X017799Y017815D01*
X017788Y017869D01*
X017820Y017934D01*
X017929Y017956D01*
X018794Y017091D01*
X018837Y017063D01*
X018888Y017052D01*
X021370D01*
X021421Y017063D01*
X021464Y017091D01*
X021823Y017450D01*
X021862Y017443D01*
X021952Y017461D01*
X022028Y017511D01*
X022079Y017587D01*
X022097Y017677D01*
X022079Y017767D01*
X022028Y017843D01*
X021952Y017894D01*
X021938Y017896D01*
X021875Y017980D01*
X021879Y018003D01*
X021885Y018031D01*
Y018312D01*
X021949Y018401D01*
X022011Y018413D01*
X022063Y018448D01*
X022099Y018501D01*
X022111Y018563D01*
Y018739D01*
X021949D01*
Y018839D01*
X022111D01*
Y019016D01*
X022195Y019101D01*
X022877D01*
X022927Y019111D01*
X022970Y019139D01*
X023361Y019530D01*
X023390Y019573D01*
X023400Y019624D01*
Y019677D01*
X023515D01*
Y020211D01*
X023066D01*
X023018Y020309D01*
X023060Y020359D01*
X024885D01*
X024936Y020369D01*
X024979Y020398D01*
X025546Y020965D01*
X025575Y021008D01*
X025585Y021059D01*
Y022804D01*
X025619Y022826D01*
X025669Y022902D01*
X025687Y022992D01*
X025669Y023082D01*
X025619Y023158D01*
X025543Y023209D01*
X025453Y023227D01*
X025363Y023209D01*
X025287Y023158D01*
X025236Y023082D01*
X025218Y022992D01*
X025236Y022902D01*
X025287Y022826D01*
X025320Y022804D01*
Y021114D01*
X024831Y020624D01*
X022973D01*
X022923Y020614D01*
X022880Y020585D01*
X022662Y020367D01*
X022633Y020324D01*
X022623Y020274D01*
Y020222D01*
X022523Y020211D01*
X022509Y020211D01*
X022437Y020280D01*
Y020406D01*
X022150D01*
Y020456D01*
X022100D01*
Y020723D01*
X021863D01*
X021862Y020759D01*
X021615D01*
Y020482D01*
X021515D01*
Y020759D01*
X021268D01*
Y020759D01*
X021261D01*
Y020759D01*
X021015D01*
Y020482D01*
X020915D01*
Y020759D01*
X020671D01*
Y020768D01*
X020424D01*
Y020491D01*
X020324D01*
Y020768D01*
X020077D01*
Y020759D01*
X019833D01*
Y020482D01*
X019733D01*
Y020759D01*
X019656D01*
X019617Y020851D01*
X019782Y021016D01*
X021565D01*
X021616Y021026D01*
X021659Y021055D01*
X021849Y021245D01*
X021878Y021288D01*
X021888Y021339D01*
Y021726D01*
X022299Y022137D01*
X022637D01*
Y021776D01*
X025001D01*
Y022763D01*
X022637D01*
Y022402D01*
X022244D01*
X022193Y022392D01*
X022150Y022363D01*
X021662Y021874D01*
X021633Y021831D01*
X021623Y021781D01*
Y021394D01*
X021510Y021281D01*
X020145D01*
X020103Y021381D01*
X020172Y021451D01*
X020201Y021494D01*
X020211Y021544D01*
Y021776D01*
X021261D01*
Y022763D01*
X018896D01*
Y021776D01*
X019946D01*
Y021599D01*
X019885Y021538D01*
X019634D01*
X019584Y021528D01*
X019541Y021500D01*
X019439Y021399D01*
X019331Y021432D01*
X019330Y021437D01*
X019275Y021519D01*
X019192Y021574D01*
X019144Y021584D01*
Y021339D01*
X019044D01*
Y021584D01*
X018997Y021574D01*
X018914Y021519D01*
X018859Y021437D01*
X018859Y021435D01*
X018778Y021389D01*
X018759D01*
X018712Y021469D01*
X018712Y021489D01*
Y022003D01*
X018602D01*
Y022175D01*
X018592Y022226D01*
X018564Y022269D01*
X018438Y022395D01*
X018470Y022474D01*
X018483Y022573D01*
X018470Y022672D01*
X018432Y022764D01*
X018371Y022844D01*
X018292Y022905D01*
X018284Y022908D01*
Y023050D01*
X018298Y023056D01*
X018384Y023067D01*
X018427Y023002D01*
X018510Y022947D01*
X018557Y022937D01*
Y023182D01*
Y023427D01*
X018510Y023418D01*
X018427Y023363D01*
X018379Y023291D01*
X018335Y023288D01*
X018275Y023301D01*
X018270Y023328D01*
X018230Y023388D01*
X017872Y023746D01*
X017813Y023785D01*
X017743Y023799D01*
X017527D01*
Y023873D01*
X016973D01*
Y023799D01*
X016827D01*
Y023873D01*
X016274D01*
Y023789D01*
X016045D01*
Y023873D01*
X015038D01*
Y023738D01*
X012417D01*
Y023853D01*
X011883D01*
Y023441D01*
X011883Y023359D01*
X011883Y023259D01*
Y022937D01*
X011783Y022927D01*
X011772Y022983D01*
X011721Y023060D01*
X011645Y023110D01*
X011555Y023128D01*
X011465Y023110D01*
X011389Y023060D01*
X011338Y022983D01*
X011321Y022894D01*
X011338Y022804D01*
X011389Y022728D01*
X011423Y022706D01*
Y022512D01*
X011355Y022492D01*
X011282Y022568D01*
X011283Y022573D01*
X011274Y022640D01*
X011248Y022703D01*
X011207Y022756D01*
X011153Y022797D01*
X011091Y022823D01*
X011024Y022832D01*
X010956Y022823D01*
X010867Y022800D01*
X010867Y022800D01*
Y022800D01*
X010867Y022800D01*
X010355D01*
X010353Y022800D01*
X010255Y022805D01*
Y024528D01*
X026929D01*
Y010827D01*
D02*
G37*
G36*
X030225Y022745D02*
D01*
D02*
G37*
%LPC*%
G36*
X022294Y023887D02*
Y023692D01*
X022489D01*
X022480Y023739D01*
X022424Y023822D01*
X022342Y023877D01*
X022294Y023887D01*
D02*
G37*
G36*
X022194D02*
X022147Y023877D01*
X022064Y023822D01*
X022009Y023739D01*
X021999Y023692D01*
X022194D01*
Y023887D01*
D02*
G37*
G36*
X022489Y023592D02*
X022294D01*
Y023397D01*
X022342Y023406D01*
X022424Y023461D01*
X022480Y023544D01*
X022489Y023592D01*
D02*
G37*
G36*
X022194D02*
X021999D01*
X022009Y023544D01*
X022064Y023461D01*
X022147Y023406D01*
X022194Y023397D01*
Y023592D01*
D02*
G37*
G36*
X018657Y023427D02*
Y023232D01*
X018852D01*
X018843Y023280D01*
X018787Y023363D01*
X018705Y023418D01*
X018657Y023427D01*
D02*
G37*
G36*
X018852Y023132D02*
X018657D01*
Y022937D01*
X018705Y022947D01*
X018787Y023002D01*
X018843Y023085D01*
X018852Y023132D01*
D02*
G37*
G36*
X017547Y023034D02*
X017300D01*
Y022807D01*
X017547D01*
Y023034D01*
D02*
G37*
G36*
X016847Y022593D02*
X016600D01*
Y022366D01*
X016847D01*
Y022593D01*
D02*
G37*
G36*
X013208Y022650D02*
X012735D01*
Y021960D01*
X013208D01*
Y022650D01*
D02*
G37*
G36*
X013229Y021746D02*
Y021551D01*
X013423D01*
X013414Y021598D01*
X013359Y021681D01*
X013276Y021736D01*
X013229Y021746D01*
D02*
G37*
G36*
X013129D02*
X013081Y021736D01*
X012998Y021681D01*
X012943Y021598D01*
X012934Y021551D01*
X013129D01*
Y021746D01*
D02*
G37*
G36*
X013423Y021451D02*
X013229D01*
Y021256D01*
X013276Y021265D01*
X013359Y021320D01*
X013414Y021403D01*
X013423Y021451D01*
D02*
G37*
G36*
X013129D02*
X012934D01*
X012943Y021403D01*
X012998Y021320D01*
X013081Y021265D01*
X013129Y021256D01*
Y021451D01*
D02*
G37*
G36*
X022959Y021265D02*
Y021071D01*
X023154D01*
X023144Y021118D01*
X023089Y021201D01*
X023006Y021256D01*
X022959Y021265D01*
D02*
G37*
G36*
X022859D02*
X022811Y021256D01*
X022728Y021201D01*
X022673Y021118D01*
X022664Y021071D01*
X022859D01*
Y021265D01*
D02*
G37*
G36*
X015500Y021197D02*
Y020850D01*
X015847D01*
X015840Y020904D01*
X015799Y021002D01*
X015735Y021085D01*
X015652Y021149D01*
X015554Y021190D01*
X015500Y021197D01*
D02*
G37*
G36*
X015400D02*
X015346Y021190D01*
X015248Y021149D01*
X015165Y021085D01*
X015101Y021002D01*
X015060Y020904D01*
X015053Y020850D01*
X015400D01*
Y021197D01*
D02*
G37*
G36*
X023154Y020971D02*
X022959D01*
Y020776D01*
X023006Y020785D01*
X023089Y020840D01*
X023144Y020923D01*
X023154Y020971D01*
D02*
G37*
G36*
X022859D02*
X022664D01*
X022673Y020923D01*
X022728Y020840D01*
X022811Y020785D01*
X022859Y020776D01*
Y020971D01*
D02*
G37*
G36*
X022200Y020723D02*
Y020506D01*
X022437D01*
Y020723D01*
X022200D01*
D02*
G37*
G36*
X015847Y020750D02*
X015500D01*
Y020403D01*
X015554Y020410D01*
X015652Y020451D01*
X015735Y020515D01*
X015799Y020598D01*
X015840Y020696D01*
X015847Y020750D01*
D02*
G37*
G36*
X015400D02*
X015053D01*
X015060Y020696D01*
X015101Y020598D01*
X015165Y020515D01*
X015248Y020451D01*
X015346Y020410D01*
X015400Y020403D01*
Y020750D01*
D02*
G37*
G36*
X012885Y020736D02*
Y020097D01*
X013524D01*
X013515Y020183D01*
X013476Y020313D01*
X013412Y020433D01*
X013325Y020538D01*
X013220Y020624D01*
X013100Y020688D01*
X012970Y020728D01*
X012885Y020736D01*
D02*
G37*
G36*
X012785D02*
X012699Y020728D01*
X012569Y020688D01*
X012449Y020624D01*
X012344Y020538D01*
X012258Y020433D01*
X012194Y020313D01*
X012154Y020183D01*
X012146Y020097D01*
X012785D01*
Y020736D01*
D02*
G37*
G36*
X016900Y020535D02*
X016801Y020522D01*
X016708Y020484D01*
X016629Y020423D01*
X016568Y020344D01*
X016530Y020251D01*
X016517Y020152D01*
X016530Y020053D01*
X016568Y019960D01*
X016629Y019881D01*
X016708Y019820D01*
X016801Y019782D01*
X016900Y019769D01*
X016999Y019782D01*
X017092Y019820D01*
X017171Y019881D01*
X017232Y019960D01*
X017270Y020053D01*
X017283Y020152D01*
X017270Y020251D01*
X017232Y020344D01*
X017171Y020423D01*
X017092Y020484D01*
X016999Y020522D01*
X016900Y020535D01*
D02*
G37*
G36*
X015541Y019847D02*
X015314D01*
Y019600D01*
X015541D01*
Y019847D01*
D02*
G37*
G36*
X024409Y019746D02*
X024181D01*
Y019499D01*
X024409D01*
Y019746D01*
D02*
G37*
G36*
X013524Y019997D02*
X012885D01*
Y019358D01*
X012970Y019367D01*
X013100Y019406D01*
X013220Y019470D01*
X013325Y019557D01*
X013412Y019662D01*
X013476Y019782D01*
X013515Y019912D01*
X013524Y019997D01*
D02*
G37*
G36*
X012785D02*
X012146D01*
X012154Y019912D01*
X012194Y019782D01*
X012258Y019662D01*
X012344Y019557D01*
X012449Y019470D01*
X012569Y019406D01*
X012699Y019367D01*
X012785Y019358D01*
Y019997D01*
D02*
G37*
G36*
X022806Y018815D02*
Y018620D01*
X023001D01*
X022991Y018667D01*
X022936Y018750D01*
X022853Y018805D01*
X022806Y018815D01*
D02*
G37*
G36*
X022706D02*
X022658Y018805D01*
X022576Y018750D01*
X022520Y018667D01*
X022511Y018620D01*
X022706D01*
Y018815D01*
D02*
G37*
G36*
X024736Y019746D02*
X024509D01*
Y019449D01*
X024459D01*
Y019399D01*
X024181D01*
Y019152D01*
X024326D01*
Y019136D01*
X024336Y019085D01*
X024349Y019067D01*
X024354Y019016D01*
X024323Y018943D01*
X024283Y018916D01*
X024232Y018840D01*
X024214Y018750D01*
X024232Y018660D01*
X024274Y018597D01*
X024284Y018555D01*
Y018512D01*
X024274Y018470D01*
X024232Y018407D01*
X024228Y018388D01*
X024165Y018370D01*
X024123Y018371D01*
X024070Y018440D01*
X023991Y018501D01*
X023898Y018540D01*
X023799Y018553D01*
X023700Y018540D01*
X023608Y018501D01*
X023528Y018440D01*
X023467Y018361D01*
X023429Y018268D01*
X023416Y018169D01*
X023429Y018070D01*
X023451Y018018D01*
X023184Y017751D01*
X023092Y017800D01*
X023095Y017815D01*
X023084Y017869D01*
X023054Y017913D01*
X023084Y017958D01*
X023095Y018012D01*
X023084Y018066D01*
X023053Y018112D01*
X023007Y018143D01*
X022953Y018154D01*
X022500D01*
X022446Y018143D01*
X022400Y018112D01*
X022369Y018066D01*
X022358Y018012D01*
X022369Y017958D01*
X022399Y017913D01*
X022369Y017869D01*
X022358Y017815D01*
X022369Y017761D01*
X022399Y017717D01*
X022369Y017672D01*
X022358Y017618D01*
X022369Y017564D01*
X022399Y017520D01*
X022369Y017476D01*
X022358Y017421D01*
X022369Y017367D01*
X022399Y017323D01*
X022369Y017279D01*
X022358Y017224D01*
X022369Y017170D01*
X022399Y017126D01*
X022369Y017082D01*
X022358Y017028D01*
X022369Y016973D01*
X022399Y016929D01*
X022369Y016885D01*
X022358Y016831D01*
X022369Y016776D01*
X022399Y016732D01*
X022369Y016688D01*
X022358Y016634D01*
X022369Y016580D01*
X022399Y016535D01*
X022369Y016491D01*
X022358Y016437D01*
X022369Y016383D01*
X022399Y016339D01*
X022369Y016294D01*
X022358Y016240D01*
X022369Y016186D01*
X022399Y016142D01*
X022369Y016098D01*
X022358Y016043D01*
X022369Y015989D01*
X022387Y015962D01*
X022385Y015961D01*
X022350Y015909D01*
X022348Y015896D01*
X022726D01*
Y015796D01*
X022348D01*
X022350Y015784D01*
X022385Y015732D01*
X022387Y015731D01*
X022369Y015704D01*
X022358Y015650D01*
X022369Y015595D01*
X022399Y015551D01*
X022369Y015507D01*
X022358Y015453D01*
X022273Y015376D01*
X022269Y015375D01*
X022226Y015346D01*
X022111Y015232D01*
X022082Y015189D01*
X022072Y015138D01*
Y013926D01*
X022053Y013905D01*
X021972Y013858D01*
X021949Y013862D01*
X021895Y013851D01*
X021850Y013822D01*
X021806Y013851D01*
X021752Y013862D01*
X021698Y013851D01*
X021654Y013822D01*
X021609Y013851D01*
X021555Y013862D01*
X021501Y013851D01*
X021457Y013822D01*
X021413Y013851D01*
X021358Y013862D01*
X021304Y013851D01*
X021260Y013822D01*
X021216Y013851D01*
X021161Y013862D01*
X021107Y013851D01*
X021063Y013822D01*
X021019Y013851D01*
X020965Y013862D01*
X020910Y013851D01*
X020866Y013822D01*
X020822Y013851D01*
X020768Y013862D01*
X020713Y013851D01*
X020669Y013822D01*
X020625Y013851D01*
X020571Y013862D01*
X020517Y013851D01*
X020472Y013822D01*
X020428Y013851D01*
X020374Y013862D01*
X020320Y013851D01*
X020276Y013822D01*
X020231Y013851D01*
X020177Y013862D01*
X020123Y013851D01*
X020079Y013822D01*
X020035Y013851D01*
X019980Y013862D01*
X019926Y013851D01*
X019882Y013822D01*
X019838Y013851D01*
X019783Y013862D01*
X019729Y013851D01*
X019685Y013822D01*
X019641Y013851D01*
X019587Y013862D01*
X019532Y013851D01*
X019488Y013822D01*
X019444Y013851D01*
X019390Y013862D01*
X019336Y013851D01*
X019291Y013822D01*
X019247Y013851D01*
X019193Y013862D01*
X019139Y013851D01*
X019094Y013822D01*
X019050Y013851D01*
X018996Y013862D01*
X018942Y013851D01*
X018898Y013822D01*
X018853Y013851D01*
X018799Y013862D01*
X018745Y013851D01*
X018701Y013822D01*
X018657Y013851D01*
X018602Y013862D01*
X018548Y013851D01*
X018504Y013822D01*
X018460Y013851D01*
X018406Y013862D01*
X018351Y013851D01*
X018307Y013822D01*
X018263Y013851D01*
X018209Y013862D01*
X018154Y013851D01*
X018108Y013821D01*
X018078Y013775D01*
X018067Y013720D01*
Y013268D01*
X018076Y013221D01*
Y012444D01*
X018005Y012373D01*
X017961D01*
X017861Y012373D01*
X017450D01*
Y012239D01*
X017314D01*
X017292Y012272D01*
X017216Y012323D01*
X017126Y012341D01*
X017036Y012323D01*
X016960Y012272D01*
X016909Y012196D01*
X016891Y012106D01*
X016909Y012017D01*
X016960Y011940D01*
X017036Y011890D01*
X017126Y011872D01*
X017216Y011890D01*
X017292Y011940D01*
X017314Y011974D01*
X017450D01*
Y011839D01*
X017861D01*
X017944Y011839D01*
X018044Y011839D01*
X018456D01*
Y012230D01*
X018556Y012272D01*
X018638Y012190D01*
X018681Y012161D01*
X018732Y012151D01*
X019033D01*
X019058Y012092D01*
X019119Y012012D01*
X019198Y011952D01*
X019257Y011927D01*
Y011870D01*
X019267Y011819D01*
X019296Y011776D01*
X019454Y011619D01*
X019497Y011590D01*
X019547Y011580D01*
X021967D01*
X022018Y011590D01*
X022061Y011619D01*
X022231Y011789D01*
X022430D01*
X022452Y011756D01*
X022528Y011705D01*
X022618Y011687D01*
X022708Y011705D01*
X022784Y011756D01*
X022785Y011758D01*
X022885Y011728D01*
Y011628D01*
X022896Y011577D01*
X022924Y011534D01*
X023450Y011009D01*
X023493Y010980D01*
X023543Y010970D01*
X025335D01*
X025385Y010980D01*
X025428Y011009D01*
X025683Y011263D01*
X025854D01*
X025861Y011253D01*
X025927Y011209D01*
X026004Y011194D01*
X026358D01*
X026436Y011209D01*
X026501Y011253D01*
X026545Y011318D01*
X026560Y011396D01*
X026545Y011473D01*
X026501Y011538D01*
X026436Y011582D01*
X026358Y011598D01*
Y011694D01*
X026436Y011709D01*
X026501Y011753D01*
X026545Y011818D01*
X026560Y011896D01*
X026545Y011973D01*
X026501Y012039D01*
X026436Y012082D01*
X026358Y012098D01*
Y012194D01*
X026436Y012209D01*
X026501Y012253D01*
X026545Y012318D01*
X026560Y012396D01*
X026545Y012473D01*
X026501Y012538D01*
X026436Y012582D01*
X026358Y012598D01*
Y012694D01*
X026436Y012709D01*
X026501Y012753D01*
X026545Y012818D01*
X026560Y012896D01*
X026545Y012973D01*
X026501Y013039D01*
X026436Y013082D01*
X026358Y013098D01*
X026004D01*
X025927Y013082D01*
X025861Y013039D01*
X025859Y013035D01*
X025760Y013029D01*
X025575Y013214D01*
Y013417D01*
X025687D01*
Y013397D01*
X025915D01*
Y013694D01*
X026015D01*
Y013397D01*
X026242D01*
Y013504D01*
X026342Y013534D01*
X026355Y013514D01*
X026438Y013459D01*
X026485Y013449D01*
Y013694D01*
X026535D01*
Y013744D01*
X026780D01*
X026771Y013792D01*
X026716Y013874D01*
X026701Y013884D01*
Y013914D01*
X026687Y013984D01*
X026681Y013993D01*
X026735Y014093D01*
X026773D01*
Y014832D01*
X026358D01*
Y014882D01*
X026308D01*
Y015671D01*
X025981D01*
Y016095D01*
X026015Y016101D01*
X026074Y016141D01*
X026113Y016200D01*
X026117Y016220D01*
X025699D01*
Y016320D01*
X026166D01*
X026231Y016341D01*
X026280Y016309D01*
X026370Y016291D01*
X026459Y016309D01*
X026535Y016360D01*
X026586Y016436D01*
X026604Y016526D01*
X026586Y016615D01*
X026535Y016691D01*
X026459Y016742D01*
X026370Y016760D01*
X026280Y016742D01*
X026231Y016710D01*
X026166Y016731D01*
X025699D01*
Y016831D01*
X026117D01*
X026113Y016851D01*
X026074Y016909D01*
X026113Y016968D01*
X026117Y016987D01*
X025699D01*
Y017087D01*
X026117D01*
X026113Y017107D01*
X026074Y017166D01*
X026094Y017231D01*
X026107Y017293D01*
X026102Y017317D01*
X026130Y017387D01*
X026170Y017422D01*
X026192Y017427D01*
X026235Y017455D01*
X026452Y017672D01*
X026481Y017715D01*
X026491Y017766D01*
Y018917D01*
X026481Y018968D01*
X026452Y019011D01*
X026285Y019178D01*
X026242Y019207D01*
X026191Y019217D01*
X026032D01*
X026007Y019234D01*
X025945Y019246D01*
X025817D01*
Y019276D01*
X025807Y019327D01*
X025778Y019370D01*
X025605Y019543D01*
X025562Y019571D01*
X025511Y019581D01*
X025247D01*
Y019726D01*
X024736D01*
Y019746D01*
D02*
G37*
G36*
X023001Y018520D02*
X022806D01*
Y018325D01*
X022853Y018334D01*
X022936Y018390D01*
X022991Y018472D01*
X023001Y018520D01*
D02*
G37*
G36*
X022706D02*
X022511D01*
X022520Y018472D01*
X022576Y018390D01*
X022658Y018334D01*
X022706Y018325D01*
Y018520D01*
D02*
G37*
G36*
X013852Y017617D02*
X013788Y017608D01*
X013682Y017565D01*
X013592Y017495D01*
X013522Y017404D01*
X013478Y017299D01*
X013470Y017235D01*
X013852D01*
Y017617D01*
D02*
G37*
G36*
X015846Y016978D02*
X015651D01*
Y016783D01*
X015698Y016792D01*
X015781Y016847D01*
X015836Y016930D01*
X015846Y016978D01*
D02*
G37*
G36*
X015551D02*
X015356D01*
X015365Y016930D01*
X015421Y016847D01*
X015503Y016792D01*
X015551Y016783D01*
Y016978D01*
D02*
G37*
G36*
X013852Y017135D02*
X013470D01*
X013478Y017072D01*
X013522Y016966D01*
X013592Y016875D01*
X013682Y016805D01*
X013788Y016762D01*
X013852Y016753D01*
Y017135D01*
D02*
G37*
G36*
X016865Y016842D02*
X016618D01*
Y016615D01*
X016865D01*
Y016842D01*
D02*
G37*
G36*
X016518D02*
X016272D01*
Y016615D01*
X016518D01*
Y016842D01*
D02*
G37*
G36*
X021938Y016088D02*
Y015893D01*
X022133D01*
X022123Y015941D01*
X022068Y016023D01*
X021986Y016078D01*
X021938Y016088D01*
D02*
G37*
G36*
X021838D02*
X021790Y016078D01*
X021708Y016023D01*
X021652Y015941D01*
X021643Y015893D01*
X021838D01*
Y016088D01*
D02*
G37*
G36*
X022133Y015793D02*
X021938D01*
Y015598D01*
X021986Y015608D01*
X022068Y015663D01*
X022123Y015745D01*
X022133Y015793D01*
D02*
G37*
G36*
X021838D02*
X021643D01*
X021652Y015745D01*
X021708Y015663D01*
X021790Y015608D01*
X021838Y015598D01*
Y015793D01*
D02*
G37*
G36*
X012885Y015996D02*
Y015357D01*
X013524D01*
X013515Y015442D01*
X013476Y015573D01*
X013412Y015693D01*
X013325Y015798D01*
X013220Y015884D01*
X013100Y015948D01*
X012970Y015988D01*
X012885Y015996D01*
D02*
G37*
G36*
X012785D02*
X012699Y015988D01*
X012569Y015948D01*
X012449Y015884D01*
X012344Y015798D01*
X012258Y015693D01*
X012194Y015573D01*
X012154Y015442D01*
X012146Y015357D01*
X012785D01*
Y015996D01*
D02*
G37*
G36*
X018334Y015225D02*
Y015030D01*
X018528D01*
X018519Y015078D01*
X018464Y015161D01*
X018381Y015216D01*
X018334Y015225D01*
D02*
G37*
G36*
X018234D02*
X018186Y015216D01*
X018103Y015161D01*
X018048Y015078D01*
X018039Y015030D01*
X018234D01*
Y015225D01*
D02*
G37*
G36*
X026773Y015671D02*
X026408D01*
Y014932D01*
X026773D01*
Y015671D01*
D02*
G37*
G36*
X018528Y014930D02*
X018334D01*
Y014735D01*
X018381Y014745D01*
X018464Y014800D01*
X018519Y014883D01*
X018528Y014930D01*
D02*
G37*
G36*
X018234D02*
X018039D01*
X018048Y014883D01*
X018103Y014800D01*
X018186Y014745D01*
X018234Y014735D01*
Y014930D01*
D02*
G37*
G36*
X013524Y015257D02*
X012885D01*
Y014618D01*
X012970Y014627D01*
X013100Y014666D01*
X013220Y014730D01*
X013325Y014816D01*
X013412Y014922D01*
X013476Y015042D01*
X013515Y015172D01*
X013524Y015257D01*
D02*
G37*
G36*
X012785D02*
X012146D01*
X012154Y015172D01*
X012194Y015042D01*
X012258Y014922D01*
X012344Y014816D01*
X012449Y014730D01*
X012569Y014666D01*
X012699Y014627D01*
X012785Y014618D01*
Y015257D01*
D02*
G37*
G36*
X011220Y014501D02*
X011121Y014488D01*
X011029Y014450D01*
X010949Y014389D01*
X010889Y014310D01*
X010850Y014217D01*
X010837Y014118D01*
X010850Y014019D01*
X010889Y013926D01*
X010949Y013847D01*
X011029Y013786D01*
X011121Y013748D01*
X011220Y013735D01*
X011320Y013748D01*
X011412Y013786D01*
X011491Y013847D01*
X011552Y013926D01*
X011577Y013986D01*
X012212D01*
X012235Y013952D01*
X012311Y013901D01*
X012400Y013884D01*
X012490Y013901D01*
X012566Y013952D01*
X012617Y014028D01*
X012635Y014118D01*
X012617Y014208D01*
X012566Y014284D01*
X012490Y014335D01*
X012400Y014353D01*
X012311Y014335D01*
X012235Y014284D01*
X012212Y014251D01*
X011577D01*
X011552Y014310D01*
X011491Y014389D01*
X011412Y014450D01*
X011320Y014488D01*
X011220Y014501D01*
D02*
G37*
G36*
X026780Y013644D02*
X026585D01*
Y013449D01*
X026633Y013459D01*
X026716Y013514D01*
X026771Y013597D01*
X026780Y013644D01*
D02*
G37*
G36*
X011270Y013528D02*
Y013168D01*
X011630D01*
X011623Y013226D01*
X011581Y013326D01*
X011515Y013413D01*
X011429Y013479D01*
X011328Y013520D01*
X011270Y013528D01*
D02*
G37*
G36*
X011170D02*
X011113Y013520D01*
X011012Y013479D01*
X010926Y013413D01*
X010860Y013326D01*
X010818Y013226D01*
X010811Y013168D01*
X011170D01*
Y013528D01*
D02*
G37*
G36*
X011630Y013068D02*
X011270D01*
Y012708D01*
X011328Y012716D01*
X011429Y012758D01*
X011515Y012824D01*
X011581Y012910D01*
X011623Y013010D01*
X011630Y013068D01*
D02*
G37*
G36*
X011170D02*
X010811D01*
X010818Y013010D01*
X010860Y012910D01*
X010926Y012824D01*
X011012Y012758D01*
X011113Y012716D01*
X011170Y012708D01*
Y013068D01*
D02*
G37*
G36*
X016700Y012802D02*
X016505D01*
X016515Y012755D01*
X016570Y012672D01*
X016652Y012617D01*
X016700Y012607D01*
Y012802D01*
D02*
G37*
G36*
X017728D02*
X017481D01*
Y012575D01*
X017728D01*
Y012802D01*
D02*
G37*
G36*
X013952Y017617D02*
Y017185D01*
Y016753D01*
X014015Y016762D01*
X014121Y016805D01*
X014212Y016875D01*
X014243Y016916D01*
X014364Y016921D01*
X014366Y016920D01*
X014389Y016889D01*
X014476Y016823D01*
X014502Y016812D01*
Y016516D01*
X014515Y016446D01*
X014555Y016386D01*
X014836Y016105D01*
Y014705D01*
X014850Y014634D01*
X014890Y014575D01*
X015673Y013792D01*
Y013632D01*
X015324D01*
Y011268D01*
X016389D01*
Y013632D01*
X016040D01*
Y013868D01*
X016026Y013938D01*
X015986Y013997D01*
X015203Y014781D01*
Y016181D01*
X015189Y016252D01*
X015149Y016311D01*
X014869Y016592D01*
Y016812D01*
X014894Y016823D01*
X014981Y016889D01*
X015047Y016976D01*
X015089Y017077D01*
X015103Y017185D01*
X015089Y017293D01*
X015047Y017394D01*
X014981Y017481D01*
X014894Y017547D01*
X014793Y017589D01*
X014685Y017603D01*
X014577Y017589D01*
X014476Y017547D01*
X014389Y017481D01*
X014366Y017450D01*
X014364Y017449D01*
X014243Y017454D01*
X014212Y017495D01*
X014121Y017565D01*
X014015Y017608D01*
X013952Y017617D01*
D02*
G37*
%LPD*%
D13*
X021370Y017185D02*
X021862Y017677D01*
X018888Y017185D02*
X021370D01*
X021752Y018031D02*
Y018789D01*
X021199Y017479D02*
X021752Y018031D01*
X018921Y017479D02*
X021199D01*
X023400Y016950D02*
X023799Y017350D01*
X023400Y016441D02*
Y016950D01*
X023198Y016240D02*
X023400Y016441D01*
X023220Y017600D02*
X023799Y018179D01*
X023220Y016516D02*
Y017600D01*
X024459Y019136D02*
X024559Y019035D01*
X024459Y019136D02*
Y019449D01*
X024559Y019035D02*
X024950D01*
X018406Y020586D02*
Y021092D01*
X024950Y019035D02*
X025156Y018829D01*
X025699D01*
X024921Y014842D02*
X024931Y014832D01*
X024921Y014842D02*
Y015541D01*
X025443Y013159D02*
Y013694D01*
X012150Y023606D02*
X015542D01*
X016032Y014874D02*
Y015453D01*
X024047Y014832D02*
X024400D01*
Y014400D02*
Y014800D01*
X023858Y015021D02*
X024047Y014832D01*
X023858Y015021D02*
Y016043D01*
X025706Y012896D02*
X026181D01*
X025443Y013159D02*
X025706Y012896D01*
X025138Y012211D02*
X025453Y011896D01*
X025138Y012211D02*
Y013307D01*
X025453Y011896D02*
X026181D01*
X023543Y011102D02*
X025335D01*
X023018Y011628D02*
X023543Y011102D01*
X025335D02*
X025628Y011396D01*
X024921Y015541D02*
X025674D01*
X016750Y012852D02*
Y013638D01*
X016550Y013838D02*
X016750Y013638D01*
X016550Y013838D02*
Y014134D01*
X020571Y018274D02*
Y018789D01*
X020374Y018077D02*
X020571Y018274D01*
X020374Y018047D02*
Y018077D01*
X022205Y013642D02*
X023018Y012829D01*
Y011628D02*
Y012829D01*
X023858Y016043D02*
Y016476D01*
X024438Y017056D01*
X024914Y016073D02*
X024921Y016066D01*
X025662Y018573D02*
X025680Y018591D01*
X026518Y013712D02*
X026535Y013694D01*
X025965D02*
X026535D01*
X025662Y018061D02*
X025680Y018042D01*
X021534Y012283D02*
Y012679D01*
X025443Y013694D02*
X025453D01*
X025433D02*
X025443D01*
X025105D02*
X025433D01*
X024400Y014400D02*
X025105Y013694D01*
X021378Y012835D02*
X021534Y012679D01*
X020925Y012835D02*
X021378D01*
X017126Y012106D02*
X017697D01*
X019547Y011713D02*
X021967D01*
X019390Y011870D02*
X019547Y011713D01*
X019390Y011870D02*
Y012283D01*
X021967Y011713D02*
X022176Y011922D01*
X022618D01*
X020768Y012992D02*
X020925Y012835D01*
X020768Y012992D02*
Y013494D01*
X020571Y012283D02*
Y013494D01*
Y012265D02*
Y012283D01*
X018732D02*
X019390D01*
X018969Y012778D02*
X019980D01*
X024829Y011538D02*
X025247D01*
X024687Y011396D02*
X024829Y011538D01*
X024055Y011396D02*
X024687D01*
X023636Y011896D02*
X024055D01*
X022795Y013348D02*
Y013760D01*
Y013348D02*
X023366Y012778D01*
X022205Y013642D02*
Y015138D01*
X026181Y011396D02*
X026220D01*
X025628D02*
X026181D01*
X023366Y012165D02*
Y012778D01*
Y012165D02*
X023636Y011896D01*
X024029Y011922D02*
X024055Y011896D01*
X026181Y012396D02*
Y012896D01*
X024783Y013661D02*
X025138Y013307D01*
X024075Y013661D02*
X024783D01*
X023661Y014075D02*
X024075Y013661D01*
X024055Y012383D02*
X024585D01*
X024813Y012611D01*
Y013267D01*
X024615Y013465D02*
X024813Y013267D01*
X023917Y013465D02*
X024615D01*
X023465Y013917D02*
X023917Y013465D01*
X023268Y013189D02*
X023561Y012896D01*
X023268Y013189D02*
Y014891D01*
X023561Y012896D02*
X024055D01*
X022205Y015138D02*
X022319Y015252D01*
X022723D01*
X022726Y015256D01*
X023661Y014075D02*
Y015335D01*
X023346Y015650D02*
X023661Y015335D01*
X022726Y015650D02*
X023346D01*
X023465Y013917D02*
Y015211D01*
X023222Y015453D02*
X023465Y015211D01*
X022726Y015453D02*
X023222D01*
X023103Y015056D02*
X023268Y014891D01*
X022730Y015056D02*
X023103D01*
X022726Y015059D02*
X022730Y015056D01*
X022726Y015256D02*
X022730Y015252D01*
X022726Y016043D02*
X023858D01*
X024931Y014832D02*
X024941Y014842D01*
X025674Y015541D02*
X025699Y015566D01*
X024272Y015541D02*
X024921D01*
X023144Y016440D02*
X023220Y016516D01*
X022730Y016440D02*
X023144D01*
X019187Y019956D02*
X019193Y019950D01*
X018799Y019956D02*
X019187D01*
X018406Y021092D02*
X018500D01*
X018406Y020586D02*
X018505Y020487D01*
X018799D01*
X018500Y021092D02*
X018847D01*
X018602Y012413D02*
X018732Y012283D01*
X018602Y012413D02*
Y013494D01*
X018799Y012948D02*
Y013494D01*
Y012948D02*
X018969Y012778D01*
X019779Y019798D02*
Y019955D01*
X019509Y019960D02*
X019774D01*
X019390Y020079D02*
X019509Y019960D01*
X019390Y020079D02*
Y020811D01*
X018847Y021092D02*
X019094Y021339D01*
X019774Y019960D02*
X019779Y019955D01*
X020374Y018789D02*
Y019203D01*
X019779Y019798D02*
X020374Y019203D01*
X020174Y018793D02*
Y019127D01*
X019900Y019401D02*
X020174Y019127D01*
X019502Y019401D02*
X019900D01*
X019193Y019950D02*
Y020965D01*
Y019710D02*
Y019950D01*
Y019710D02*
X019502Y019401D01*
X022124Y020482D02*
X022150Y020456D01*
X021565Y020482D02*
X022124D01*
X020956Y020491D02*
X020965Y020482D01*
X021565D01*
X020374Y020491D02*
X020956D01*
X021565Y019660D02*
Y019951D01*
X021161Y018424D02*
Y018789D01*
X020965Y018228D02*
X021161Y018424D01*
X020965Y017901D02*
Y018228D01*
X021358Y018169D02*
Y018789D01*
X020965D02*
Y019951D01*
X024832Y017056D02*
X025325Y017549D01*
X024438Y017056D02*
X024832D01*
X024705Y016781D02*
X025699D01*
X024488Y016565D02*
X024705Y016781D01*
X019040Y021339D02*
X019094D01*
X025699Y017549D02*
X026142D01*
X025325D02*
X025699D01*
X026142D02*
X026358Y017766D01*
X025453Y021059D02*
Y022992D01*
X029419Y017717D02*
X029744D01*
X029182Y011850D02*
X029291D01*
X024885Y020491D02*
X025453Y021059D01*
X022973Y020491D02*
X024885D01*
X022756Y020274D02*
X022973Y020491D01*
X022756Y019944D02*
Y020274D01*
X019634Y021406D02*
X019940D01*
X019193Y020965D02*
X019634Y021406D01*
X029921Y020827D02*
Y021516D01*
X029481Y021956D02*
X029921Y021516D01*
X029206Y021956D02*
X029481D01*
X030591Y021947D02*
X030600Y021956D01*
X030591Y021327D02*
Y021947D01*
X030236Y020187D02*
Y021565D01*
X030118Y020069D02*
X030236Y020187D01*
X030118Y019489D02*
Y020069D01*
X028553Y018317D02*
X030517D01*
X028563Y018051D02*
X030827D01*
X028553Y018061D02*
X028563Y018051D01*
X030517Y018317D02*
X030787Y018588D01*
X028553Y018573D02*
X029970D01*
X028964Y018847D02*
X029094Y018977D01*
X028572Y018847D02*
X028964D01*
X028553Y018829D02*
X028572Y018847D01*
X030118Y018720D02*
Y018977D01*
X029970Y018573D02*
X030118Y018720D01*
X030787Y018588D02*
Y018977D01*
X029580Y022222D02*
X030236Y021565D01*
X027618Y019085D02*
X028553D01*
X028682Y019489D02*
X029406D01*
X028926Y014860D02*
X029094Y015028D01*
X028926Y014517D02*
Y014860D01*
X028169Y013760D02*
X028926Y014517D01*
X029094Y015028D02*
X029406D01*
X028169Y011850D02*
Y013760D01*
X031181Y011752D02*
Y012657D01*
X030453Y015028D02*
Y015374D01*
X030581Y015502D01*
X029331Y017805D02*
X029419Y017717D01*
X030581Y015502D02*
Y016004D01*
X029406Y015028D02*
X030453D01*
X029438Y012383D02*
Y012657D01*
X029288Y012233D02*
X029438Y012383D01*
X028650Y012233D02*
X029288D01*
X028169Y011752D02*
X028650Y012233D01*
X011555Y022316D02*
Y022894D01*
X011457Y022218D02*
X011555Y022316D01*
X011378Y022218D02*
X011457D01*
X030650Y013268D02*
X030669Y013248D01*
X030405Y013268D02*
X030650D01*
X030269Y013132D02*
X030405Y013268D01*
X030081Y013132D02*
X030269D01*
X029823Y012874D02*
X030081Y013132D01*
X028553Y019360D02*
X028682Y019489D01*
X028553Y019085D02*
Y019360D01*
X029094Y018977D02*
X029419D01*
X029429Y018967D01*
X028917Y013257D02*
X028926Y013248D01*
Y012657D02*
Y013248D01*
X028917Y013257D02*
Y013780D01*
X029823Y012382D02*
Y012874D01*
X029291Y011850D02*
X029823Y012382D01*
X030197Y011850D02*
Y012657D01*
X029438Y013248D02*
X029724D01*
X029429D02*
X029438D01*
X029724D02*
X029862Y013386D01*
Y013919D01*
X030470Y014528D01*
X031181D01*
X029182Y017056D02*
X029419D01*
X028926Y016800D02*
X029182Y017056D01*
X028572Y016800D02*
X028926D01*
X028553Y016781D02*
X028572Y016800D01*
X030571Y016545D02*
Y016870D01*
Y016545D02*
X030581Y016535D01*
X030354Y017087D02*
X030571Y016870D01*
X030079Y017087D02*
X030354D01*
X029783Y017382D02*
X030079Y017087D01*
X029429Y017382D02*
X029783D01*
X029262Y017549D02*
X029429Y017382D01*
X028553Y017549D02*
X029262D01*
X030197Y012657D02*
X030669D01*
X031181Y013248D02*
Y014528D01*
Y012657D02*
Y013248D01*
X028553Y017805D02*
X029331D01*
X030581Y016004D02*
X031181D01*
X029429D02*
X030049D01*
X028425Y016270D02*
X028553Y016142D01*
X029035Y016063D02*
Y016173D01*
X028939Y016270D02*
X029035Y016173D01*
X028553Y016270D02*
X028939D01*
X029035Y016063D02*
X029094Y016004D01*
X029429D01*
X029419Y016526D02*
X029429Y016535D01*
X028553Y016526D02*
X029419D01*
X029429Y016535D02*
X030049D01*
X030581D02*
X031181D01*
Y017056D01*
X024449Y017441D02*
X024831D01*
X025195Y017805D01*
X028366Y022751D02*
X028824D01*
X028832Y022744D01*
X027776Y022161D02*
X028366Y022751D01*
X027776Y020327D02*
Y022161D01*
Y020327D02*
X028294D01*
X030787Y019489D02*
Y020571D01*
X030974Y020757D01*
Y022744D01*
X029580Y022222D02*
Y022744D01*
X027894Y017028D02*
Y018622D01*
Y016452D02*
Y017028D01*
X027904Y017037D01*
X028553D01*
X028100Y018829D02*
X028553D01*
X027894Y018622D02*
X028100Y018829D01*
X028076Y016270D02*
X028425D01*
X027894Y016452D02*
X028076Y016270D01*
X016034Y016033D02*
X016568D01*
X016578Y016043D02*
X017431D01*
X016568Y016033D02*
X016578Y016043D01*
X016240Y014666D02*
X016550D01*
X016032Y014874D02*
X016240Y014666D01*
X024272Y016073D02*
X024914D01*
X025684Y019099D02*
Y019276D01*
Y019099D02*
X025699Y019085D01*
X025511Y019449D02*
X025684Y019276D01*
X024990Y019449D02*
X025511D01*
X025053Y016526D02*
X025699D01*
X024921Y016394D02*
X025053Y016526D01*
X025699Y019085D02*
X026191D01*
X026358Y018917D01*
Y017766D02*
Y018917D01*
X024921Y016073D02*
Y016394D01*
X025195Y017805D02*
X025699D01*
X024990Y018061D02*
X025662D01*
X024803Y017874D02*
X024990Y018061D01*
X024449Y017874D02*
X024803D01*
X024990Y018573D02*
X025662D01*
X024813Y018750D02*
X024990Y018573D01*
X024449Y018750D02*
X024813D01*
X024449Y018317D02*
X025699D01*
X024921Y016066D02*
Y016073D01*
X025680Y018591D02*
X025684Y018588D01*
X025680Y017787D02*
X025699Y017805D01*
X025680Y018042D02*
X025699Y018061D01*
Y016526D02*
X026370D01*
X028806Y020960D02*
Y021327D01*
Y020960D02*
X028939Y020827D01*
X029406D01*
X028806Y020327D02*
X029406D01*
X019300Y017901D02*
X019783D01*
X019980Y018098D01*
Y018789D01*
X021755Y021781D02*
X022244Y022269D01*
X023819D01*
X021755Y021339D02*
Y021781D01*
X021565Y021149D02*
X021755Y021339D01*
X019728Y021149D02*
X021565D01*
X017953Y021108D02*
X017969Y021092D01*
X017953Y021108D02*
Y021736D01*
X017969Y020152D02*
Y021092D01*
X022726Y016437D02*
X022730Y016440D01*
X022726Y016240D02*
X023198D01*
X018470Y021741D02*
Y022175D01*
X017969Y019645D02*
Y020152D01*
Y019645D02*
X018213Y019401D01*
X016113Y019540D02*
X016122Y019550D01*
X016113Y018950D02*
Y019540D01*
X014161Y018950D02*
X015601D01*
X016118Y018965D02*
X017435D01*
X015601Y018950D02*
X015718Y018833D01*
X016502Y018179D02*
X017014Y018691D01*
X015483Y018287D02*
X015601Y018169D01*
X011220Y014118D02*
X012400D01*
X013902Y018691D02*
X014161Y018950D01*
X016113D02*
X016122Y018960D01*
X018100Y022545D02*
X018470Y022175D01*
X017953Y021736D02*
X017969Y021720D01*
X018213Y019401D02*
X018799D01*
X029476Y023750D02*
X030700D01*
X028227D02*
X029476D01*
X018799Y019401D02*
X018993Y019208D01*
X030150Y022226D02*
Y022668D01*
X030226Y022744D01*
X030700Y023306D02*
Y023750D01*
X030600Y023206D02*
X030700Y023306D01*
X030600Y021956D02*
Y023206D01*
X028450Y021896D02*
Y021950D01*
X028282Y021339D02*
Y021728D01*
Y021339D02*
X028294Y021327D01*
X028282Y021728D02*
X028450Y021896D01*
X029197Y021965D02*
X029206Y021956D01*
X023150Y019827D02*
X023268Y019944D01*
X017435Y018965D02*
X018921Y017479D01*
X018209Y012106D02*
Y013494D01*
X019779Y019955D02*
X019783Y019950D01*
X021559Y019208D02*
X022150Y019799D01*
X016113Y018179D02*
X016502D01*
X017382Y018691D02*
X018888Y017185D01*
X017014Y018691D02*
X017382D01*
X019390Y020811D02*
X019728Y021149D01*
X020079Y021544D02*
Y022269D01*
X019940Y021406D02*
X020079Y021544D01*
X020174Y018793D02*
X020177Y018789D01*
X019783Y020482D02*
X020364D01*
X020374Y020491D01*
X022150Y019799D02*
Y019944D01*
X018993Y018793D02*
Y019208D01*
Y018793D02*
X018996Y018789D01*
X023268Y019624D02*
Y019944D01*
X021755Y019138D02*
X021850Y019233D01*
X021755Y018793D02*
Y019138D01*
X021752Y018789D02*
X021755Y018793D01*
X021850Y019233D02*
X022877D01*
X023268Y019624D01*
X021559Y018793D02*
Y019208D01*
X021555Y018789D02*
X021559Y018793D01*
X022150Y019944D02*
X022756D01*
X021161Y019256D02*
X021565Y019660D01*
X021161Y018789D02*
Y019256D01*
X020768Y018789D02*
Y019233D01*
X020374Y019627D02*
X020768Y019233D01*
X020374Y019627D02*
Y019960D01*
X015601Y017028D02*
Y017590D01*
X015591Y017600D02*
X015601Y017590D01*
X016550Y014134D02*
X016855D01*
X016959Y014238D01*
Y014410D01*
X017017Y014468D01*
X017431D01*
X016032Y015453D02*
X016034Y015450D01*
X016113Y017610D02*
X016122Y017600D01*
X016113Y017610D02*
Y018169D01*
Y018179D02*
Y018189D01*
Y018169D02*
Y018179D01*
Y018189D02*
X016230Y018306D01*
X014685Y018169D02*
X015601D01*
X013902D02*
Y018691D01*
X012150Y021900D02*
Y023094D01*
X011986Y021736D02*
X012150Y021900D01*
X011378Y021736D02*
X011986D01*
X016540Y023606D02*
X016550Y023616D01*
X016540Y021794D02*
X016550Y021784D01*
X017431Y013384D02*
Y014272D01*
X016568Y015453D02*
X017431D01*
X016566Y015450D02*
X016568Y015453D01*
X016550Y014665D02*
X017431D01*
X016550Y014666D02*
X016550Y014665D01*
X016750Y012852D02*
X017431D01*
X011216Y013114D02*
X011220Y013118D01*
X022726Y015846D02*
X022730Y015843D01*
X029476Y023306D02*
Y023750D01*
X028094Y023617D02*
X028227Y023750D01*
X028094Y023324D02*
Y023617D01*
X028076Y023306D02*
X028094Y023324D01*
X028276Y020345D02*
X028294Y020327D01*
X028824Y022751D02*
Y023306D01*
X030224Y022746D02*
X030226Y022744D01*
X030224Y022746D02*
Y023306D01*
D15*
X011378Y022218D02*
D03*
Y021254D02*
D03*
D16*
Y021736D02*
D03*
D17*
X010610Y022465D02*
D03*
Y021008D02*
D03*
D18*
X014167Y014173D02*
D03*
X013636D02*
D03*
X025433Y013694D02*
D03*
X025965D02*
D03*
X030581Y016004D02*
D03*
X030049D02*
D03*
X030581Y016535D02*
D03*
X030049D02*
D03*
X024990Y019449D02*
D03*
X024459D02*
D03*
X016122Y019550D02*
D03*
X015591D02*
D03*
X024931Y014832D02*
D03*
X024400D02*
D03*
X016566Y015450D02*
D03*
X016034D02*
D03*
X018500Y021092D02*
D03*
X017969D02*
D03*
X015591Y017600D02*
D03*
X016122D02*
D03*
D19*
X026181Y011396D02*
D03*
Y011896D02*
D03*
Y012396D02*
D03*
Y012896D02*
D03*
X024055Y011396D02*
D03*
Y011896D02*
D03*
Y012396D02*
D03*
Y012896D02*
D03*
D20*
X012943Y012450D02*
D03*
X015857D02*
D03*
D21*
X025699Y019085D02*
D03*
Y018829D02*
D03*
Y018573D02*
D03*
Y018317D02*
D03*
Y018061D02*
D03*
Y017805D02*
D03*
Y017549D02*
D03*
Y017293D02*
D03*
Y017037D02*
D03*
Y016781D02*
D03*
Y016526D02*
D03*
Y016270D02*
D03*
X028553Y019085D02*
D03*
Y018829D02*
D03*
Y018573D02*
D03*
Y018317D02*
D03*
Y018061D02*
D03*
Y017805D02*
D03*
Y017549D02*
D03*
Y017293D02*
D03*
Y017037D02*
D03*
Y016781D02*
D03*
Y016526D02*
D03*
Y016270D02*
D03*
D22*
X017953Y021736D02*
D03*
X018465D02*
D03*
X029438Y012657D02*
D03*
X028926D02*
D03*
X029438Y013248D02*
D03*
X028926D02*
D03*
X028294Y020327D02*
D03*
X028806D02*
D03*
X030669Y012657D02*
D03*
X031181D02*
D03*
X028294Y021327D02*
D03*
X028806D02*
D03*
X030669Y013248D02*
D03*
X031181D02*
D03*
X023268Y019944D02*
D03*
X022756D02*
D03*
X015601Y018169D02*
D03*
X016113D02*
D03*
X015601Y018950D02*
D03*
X016113D02*
D03*
X018209Y012106D02*
D03*
X017697D02*
D03*
D23*
X031181Y016535D02*
D03*
Y016004D02*
D03*
X016550Y014134D02*
D03*
Y014666D02*
D03*
X016568Y016565D02*
D03*
Y016033D02*
D03*
X021565Y020482D02*
D03*
Y019951D02*
D03*
X020965Y020482D02*
D03*
Y019951D02*
D03*
X017431Y012852D02*
D03*
Y013384D02*
D03*
X020374Y020491D02*
D03*
Y019960D02*
D03*
X018799Y020487D02*
D03*
Y019956D02*
D03*
X019783Y020482D02*
D03*
Y019950D02*
D03*
X029429Y016004D02*
D03*
Y016535D02*
D03*
Y018967D02*
D03*
Y019499D02*
D03*
X024272Y015541D02*
D03*
Y016073D02*
D03*
X024921Y015541D02*
D03*
Y016073D02*
D03*
X016550Y023084D02*
D03*
Y023616D02*
D03*
X017250Y023084D02*
D03*
Y023616D02*
D03*
X016550Y022316D02*
D03*
Y021784D02*
D03*
D24*
X026358Y014882D02*
D03*
X027894D02*
D03*
D25*
X023819Y022269D02*
D03*
X020079D02*
D03*
D26*
X017431Y018012D02*
D03*
Y017815D02*
D03*
Y017618D02*
D03*
Y017421D02*
D03*
Y017224D02*
D03*
Y017028D02*
D03*
Y016831D02*
D03*
Y016634D02*
D03*
Y016437D02*
D03*
Y016240D02*
D03*
Y016043D02*
D03*
Y015846D02*
D03*
Y015650D02*
D03*
Y015453D02*
D03*
Y015256D02*
D03*
Y015059D02*
D03*
Y014862D02*
D03*
Y014665D02*
D03*
Y014468D02*
D03*
Y014272D02*
D03*
X022726D02*
D03*
Y014468D02*
D03*
Y014665D02*
D03*
Y014862D02*
D03*
Y015059D02*
D03*
Y015256D02*
D03*
Y015453D02*
D03*
Y015650D02*
D03*
Y015846D02*
D03*
Y016043D02*
D03*
Y016240D02*
D03*
Y016437D02*
D03*
Y016634D02*
D03*
Y016831D02*
D03*
Y017028D02*
D03*
Y017224D02*
D03*
Y017421D02*
D03*
Y017618D02*
D03*
Y017815D02*
D03*
Y018012D02*
D03*
D27*
X018209Y013494D02*
D03*
X018406D02*
D03*
X018602D02*
D03*
X018799D02*
D03*
X018996D02*
D03*
X019193D02*
D03*
X019390D02*
D03*
X019587D02*
D03*
X019783D02*
D03*
X019980D02*
D03*
X020177D02*
D03*
X020374D02*
D03*
X020571D02*
D03*
X020768D02*
D03*
X020965D02*
D03*
X021161D02*
D03*
X021358D02*
D03*
X021555D02*
D03*
X021752D02*
D03*
X021949D02*
D03*
Y018789D02*
D03*
X021752D02*
D03*
X021555D02*
D03*
X021358D02*
D03*
X021161D02*
D03*
X020965D02*
D03*
X020768D02*
D03*
X020571D02*
D03*
X020374D02*
D03*
X020177D02*
D03*
X019980D02*
D03*
X019783D02*
D03*
X019587D02*
D03*
X019390D02*
D03*
X019193D02*
D03*
X018996D02*
D03*
X018799D02*
D03*
X018602D02*
D03*
X018406D02*
D03*
X018209D02*
D03*
D28*
X015542Y021794D02*
D03*
Y022700D02*
D03*
Y023606D02*
D03*
D29*
X013258Y022700D02*
D03*
D30*
X030118Y018977D02*
D03*
Y019489D02*
D03*
X030787Y018977D02*
D03*
Y019489D02*
D03*
X022150Y020456D02*
D03*
Y019944D02*
D03*
X012150Y023094D02*
D03*
Y023606D02*
D03*
D31*
X029580Y022744D02*
D03*
X028832D02*
D03*
X029206Y021956D02*
D03*
X030974Y022744D02*
D03*
X030226D02*
D03*
X030600Y021956D02*
D03*
X028076Y023306D02*
D03*
X028824D02*
D03*
X028450Y024094D02*
D03*
X029476Y023306D02*
D03*
X030224D02*
D03*
X029850Y024094D02*
D03*
D55*
X026518Y013712D02*
Y013914D01*
X026358Y014073D02*
X026518Y013914D01*
X026358Y014073D02*
Y014882D01*
X014685Y016516D02*
X015020Y016181D01*
Y014705D02*
Y016181D01*
Y014705D02*
X015857Y013868D01*
X014161Y014167D02*
Y015589D01*
X020965Y017901D02*
X020984Y017920D01*
X014685Y016516D02*
Y017185D01*
X014161Y014167D02*
X014167Y014173D01*
X014160Y014166D02*
X014161Y014167D01*
X014154Y012461D02*
X014160Y012468D01*
Y014166D01*
X015857Y012450D02*
Y013868D01*
X012750Y017000D02*
X014161Y015589D01*
X012750Y017000D02*
Y018458D01*
X013224Y014163D02*
X013636D01*
Y014173D01*
Y014154D02*
Y014163D01*
X012953Y013892D02*
X013224Y014163D01*
X012943Y012450D02*
X012953Y012459D01*
Y013892D01*
X016034Y015450D02*
Y016033D01*
X018100Y022573D02*
Y023258D01*
X017743Y023616D02*
X018100Y023258D01*
X017250Y023616D02*
X017743D01*
X018470Y021741D02*
X018475Y021747D01*
X014400Y020800D02*
Y021462D01*
X018465Y021736D02*
X018470Y021741D01*
X014733Y021794D02*
X015542D01*
X014400Y021462D02*
X014733Y021794D01*
X014400Y020108D02*
Y020800D01*
X012750Y018458D02*
X014400Y020108D01*
X018100Y022545D02*
Y022573D01*
X015600Y023084D02*
X016550D01*
X015600Y022316D02*
X016550D01*
X015542Y022374D02*
X015600Y022316D01*
X014400Y022700D02*
X015542D01*
X013258D02*
X014400D01*
X015542Y023606D02*
X016540D01*
X016550Y023616D02*
X017250D01*
X016550Y023084D02*
X017250D01*
X015542Y023026D02*
X015600Y023084D01*
X015542Y022700D02*
Y023026D01*
Y022374D02*
Y022700D01*
Y021794D02*
X016540D01*
D56*
X026348Y014872D02*
X026358Y014882D01*
X025699Y015566D02*
Y016142D01*
Y014990D02*
Y015566D01*
X025807Y014882D02*
X026358D01*
X025699Y014990D02*
X025807Y014882D01*
X028553Y015000D02*
Y016142D01*
X028435Y014882D02*
X028553Y015000D01*
X027894Y014882D02*
X028435D01*
D57*
X020571Y012283D02*
D03*
X031181Y011752D02*
D03*
X022362Y012778D02*
D03*
X030197Y011752D02*
D03*
X028169D02*
D03*
X029182D02*
D03*
X018100Y022573D02*
D03*
X019390Y012283D02*
D03*
X021555D02*
D03*
X023799Y018169D02*
D03*
Y017350D02*
D03*
X017969Y020152D02*
D03*
X016900D02*
D03*
X015450Y020800D02*
D03*
X014400D02*
D03*
X011220Y014118D02*
D03*
D58*
X029406Y015028D02*
D03*
Y021327D02*
D03*
D59*
Y014028D02*
D03*
Y014528D02*
D03*
Y020327D02*
D03*
Y020827D02*
D03*
D60*
X012835Y020047D02*
D03*
Y015307D02*
D03*
D61*
X013902Y017185D02*
D03*
X014685Y018169D02*
D03*
X013902D02*
D03*
X014685Y017185D02*
D03*
D62*
X011220Y013118D02*
D03*
D63*
X021862Y017677D02*
D03*
X026370Y016526D02*
D03*
X026535Y013694D02*
D03*
X025247Y011538D02*
D03*
X022795Y013760D02*
D03*
X022618Y011922D02*
D03*
X018607Y023182D02*
D03*
X022244Y023642D02*
D03*
X021888Y015843D02*
D03*
X021358Y018169D02*
D03*
X023858Y016476D02*
D03*
X019094Y021339D02*
D03*
X019980Y012778D02*
D03*
X029921Y020827D02*
D03*
X030591Y021327D02*
D03*
X027618Y019085D02*
D03*
X030453Y015028D02*
D03*
X030269Y017721D02*
D03*
X029744D02*
D03*
X011555Y022894D02*
D03*
X030081Y013132D02*
D03*
X030827Y018051D02*
D03*
X031181Y014528D02*
D03*
X028917Y013780D02*
D03*
X029419Y017056D02*
D03*
X024488Y016565D02*
D03*
X024449Y017874D02*
D03*
Y017441D02*
D03*
X031181Y017056D02*
D03*
X030197Y012657D02*
D03*
X024449Y018317D02*
D03*
Y018750D02*
D03*
X018284Y014980D02*
D03*
X022909Y021021D02*
D03*
X013179Y021501D02*
D03*
X022756Y018570D02*
D03*
X019300Y017901D02*
D03*
X017126Y012106D02*
D03*
X012400Y014118D02*
D03*
X030150Y022226D02*
D03*
X030700Y023750D02*
D03*
X020965Y017901D02*
D03*
X020374Y018047D02*
D03*
X028450Y021950D02*
D03*
X025453Y022992D02*
D03*
X015601Y017028D02*
D03*
X016034Y016033D02*
D03*
X016750Y012852D02*
D03*
X027776Y020327D02*
D03*
D64*
X014154Y012461D02*
D03*
X014400Y022700D02*
D03*
M02*
