G04*
G04 #@! TF.GenerationSoftware,Altium Limited,Altium Designer,19.1.5 (86)*
G04*
G04 Layer_Color=32896*
%FSAX24Y24*%
%MOIN*%
G70*
G01*
G75*
%ADD65C,0.0084*%
D65*
X026288Y023900D02*
Y023309D01*
Y023506D01*
X025894Y023900D01*
X026189Y023605D01*
X025894Y023309D01*
X025304Y023900D02*
X025697D01*
Y023605D01*
X025500D01*
X025697D01*
Y023309D01*
X025107Y023900D02*
Y023309D01*
X024812D01*
X024713Y023408D01*
Y023801D01*
X024812Y023900D01*
X025107D01*
X024517D02*
X024123D01*
X024320D01*
Y023309D01*
X023631Y023900D02*
X023828D01*
X023926Y023801D01*
Y023408D01*
X023828Y023309D01*
X023631D01*
X023533Y023408D01*
Y023801D01*
X023631Y023900D01*
X023041D02*
X023237D01*
X023336Y023801D01*
Y023408D01*
X023237Y023309D01*
X023041D01*
X022942Y023408D01*
Y023801D01*
X023041Y023900D01*
X022745D02*
Y023309D01*
X022352D01*
X021565D02*
Y023900D01*
X021270D01*
X021171Y023801D01*
Y023605D01*
X021270Y023506D01*
X021565D01*
X020974Y023900D02*
X020581D01*
X020778D01*
Y023309D01*
X020384D02*
X020187D01*
X020286D01*
Y023900D01*
X020384Y023801D01*
X019892D02*
X019794Y023900D01*
X019597D01*
X019498Y023801D01*
Y023408D01*
X019597Y023309D01*
X019794D01*
X019892Y023408D01*
Y023801D01*
X019302D02*
X019203Y023900D01*
X019006D01*
X018908Y023801D01*
Y023408D01*
X019006Y023309D01*
X019203D01*
X019302Y023408D01*
Y023801D01*
X018121Y023309D02*
Y023900D01*
X017826D01*
X017727Y023801D01*
Y023605D01*
X017826Y023506D01*
X018121D01*
X017924D02*
X017727Y023309D01*
X017137Y023900D02*
X017531D01*
Y023309D01*
X017137D01*
X017531Y023605D02*
X017334D01*
X016940Y023900D02*
Y023506D01*
X016743Y023309D01*
X016547Y023506D01*
Y023900D01*
X015366Y023801D02*
X015464Y023900D01*
X015661D01*
X015760Y023801D01*
Y023408D01*
X015661Y023309D01*
X015464D01*
X015366Y023408D01*
X022352Y022399D02*
X022745D01*
X022352Y022792D01*
Y022891D01*
X022450Y022989D01*
X022647D01*
X022745Y022891D01*
X022155D02*
X022057Y022989D01*
X021860D01*
X021762Y022891D01*
Y022497D01*
X021860Y022399D01*
X022057D01*
X022155Y022497D01*
Y022891D01*
X021565Y022399D02*
X021368D01*
X021466D01*
Y022989D01*
X021565Y022891D01*
X021073Y022497D02*
X020974Y022399D01*
X020778D01*
X020679Y022497D01*
Y022891D01*
X020778Y022989D01*
X020974D01*
X021073Y022891D01*
Y022792D01*
X020974Y022694D01*
X020679D01*
X020482D02*
X020089D01*
X019892Y022891D02*
X019794Y022989D01*
X019597D01*
X019498Y022891D01*
Y022497D01*
X019597Y022399D01*
X019794D01*
X019892Y022497D01*
Y022891D01*
X019302Y022989D02*
X018908D01*
Y022891D01*
X019302Y022497D01*
Y022399D01*
M02*
