G04*
G04 #@! TF.GenerationSoftware,Altium Limited,Altium Designer,19.1.5 (86)*
G04*
G04 Layer_Physical_Order=2*
G04 Layer_Color=16711680*
%FSAX24Y24*%
%MOIN*%
G70*
G01*
G75*
%ADD12C,0.0100*%
%ADD13C,0.0394*%
D12*
X016943Y014157D02*
X017980Y013120D01*
X014685Y014157D02*
X016943D01*
X017980Y011516D02*
Y013120D01*
X016707Y013543D02*
X017480Y012770D01*
Y011516D02*
Y012770D01*
X015039Y013543D02*
X016707D01*
X016521Y012929D02*
X016980Y012470D01*
Y011516D02*
Y012470D01*
X014685Y012929D02*
X016521D01*
X011681Y012481D02*
X012129Y012929D01*
X011681Y011516D02*
Y012481D01*
X012129Y012929D02*
X013976D01*
X011893Y013543D02*
X013622D01*
X011181Y012831D02*
X011893Y013543D01*
X011181Y011516D02*
Y012831D01*
X011707Y014157D02*
X013976D01*
X010681Y013131D02*
X011707Y014157D01*
X010681Y011516D02*
Y013131D01*
D13*
X014685Y014157D02*
D03*
X013976D02*
D03*
X015039Y013543D02*
D03*
X014685Y012929D02*
D03*
X013976D02*
D03*
X013622Y013543D02*
D03*
X017980Y011516D02*
D03*
X017480D02*
D03*
X016980D02*
D03*
X011681D02*
D03*
X011181D02*
D03*
X010681D02*
D03*
M02*
