G04*
G04 #@! TF.GenerationSoftware,Altium Limited,Altium Designer,19.1.5 (86)*
G04*
G04 Layer_Color=32896*
%FSAX24Y24*%
%MOIN*%
G70*
G01*
G75*
%ADD10C,0.0084*%
D10*
X023813Y018604D02*
Y018014D01*
Y018210D01*
X023420Y018604D01*
X023715Y018309D01*
X023420Y018014D01*
X022829Y018604D02*
X023223D01*
Y018309D01*
X023026D01*
X023223D01*
Y018014D01*
X022632Y018604D02*
Y018014D01*
X022337D01*
X022239Y018112D01*
Y018506D01*
X022337Y018604D01*
X022632D01*
X022042D02*
X021649D01*
X021845D01*
Y018014D01*
X021157Y018604D02*
X021353D01*
X021452Y018506D01*
Y018112D01*
X021353Y018014D01*
X021157D01*
X021058Y018112D01*
Y018506D01*
X021157Y018604D01*
X020566D02*
X020763D01*
X020861Y018506D01*
Y018112D01*
X020763Y018014D01*
X020566D01*
X020468Y018112D01*
Y018506D01*
X020566Y018604D01*
X020271D02*
Y018014D01*
X019877D01*
X019090D02*
Y018604D01*
X018795D01*
X018697Y018506D01*
Y018309D01*
X018795Y018210D01*
X019090D01*
X018500Y018604D02*
X018106D01*
X018303D01*
Y018014D01*
X017910D02*
X017713D01*
X017811D01*
Y018604D01*
X017910Y018506D01*
X017418D02*
X017319Y018604D01*
X017122D01*
X017024Y018506D01*
Y018112D01*
X017122Y018014D01*
X017319D01*
X017418Y018112D01*
Y018506D01*
X016434Y018014D02*
X016827D01*
X016434Y018407D01*
Y018506D01*
X016532Y018604D01*
X016729D01*
X016827Y018506D01*
X015647Y018014D02*
Y018604D01*
X015351D01*
X015253Y018506D01*
Y018309D01*
X015351Y018210D01*
X015647D01*
X015450D02*
X015253Y018014D01*
X014663Y018604D02*
X015056D01*
Y018014D01*
X014663D01*
X015056Y018309D02*
X014859D01*
X014466Y018604D02*
Y018210D01*
X014269Y018014D01*
X014072Y018210D01*
Y018604D01*
X012892Y018506D02*
X012990Y018604D01*
X013187D01*
X013285Y018506D01*
Y018112D01*
X013187Y018014D01*
X012990D01*
X012892Y018112D01*
X019877Y017103D02*
X020271D01*
X019877Y017496D01*
Y017595D01*
X019976Y017693D01*
X020173D01*
X020271Y017595D01*
X019681D02*
X019582Y017693D01*
X019385D01*
X019287Y017595D01*
Y017201D01*
X019385Y017103D01*
X019582D01*
X019681Y017201D01*
Y017595D01*
X019090Y017103D02*
X018894D01*
X018992D01*
Y017693D01*
X019090Y017595D01*
X018598Y017201D02*
X018500Y017103D01*
X018303D01*
X018205Y017201D01*
Y017595D01*
X018303Y017693D01*
X018500D01*
X018598Y017595D01*
Y017496D01*
X018500Y017398D01*
X018205D01*
X018008D02*
X017614D01*
X017418Y017595D02*
X017319Y017693D01*
X017122D01*
X017024Y017595D01*
Y017201D01*
X017122Y017103D01*
X017319D01*
X017418Y017201D01*
Y017595D01*
X016827Y017693D02*
X016434D01*
Y017595D01*
X016827Y017201D01*
Y017103D01*
M02*
